<mxfile host="app.diagrams.net" modified="2020-10-12T14:46:58.466Z" agent="5.0 (Windows NT 10.0; Win64; x64) AppleWebKit/537.36 (KHTML, like Gecko) Chrome/85.0.4183.121 Safari/537.36" etag="DF_Wqn8bgt993NaTf8FB" version="13.7.9" type="github">
  <diagram name="Page-1" id="f1b7ffb7-ca1e-a977-7cf5-a751b3c06c05">
    <mxGraphModel dx="2499" dy="934" grid="1" gridSize="10" guides="1" tooltips="1" connect="1" arrows="1" fold="1" page="1" pageScale="1" pageWidth="826" pageHeight="1169" background="#ffffff" math="0" shadow="0">
      <root>
        <mxCell id="0" />
        <mxCell id="1" parent="0" />
        <mxCell id="tzb5yaRrSsXEz6ic2CVl-163" value="" style="rounded=0;whiteSpace=wrap;html=1;" parent="1" vertex="1">
          <mxGeometry x="1652" y="2690" width="590" height="440" as="geometry" />
        </mxCell>
        <mxCell id="bd66M0HTxPimwIOGu9iC-121" value="" style="rounded=0;whiteSpace=wrap;html=1;dashed=1;strokeWidth=2;fillColor=#ffffff;strokeColor=#66FF66;" vertex="1" parent="1">
          <mxGeometry x="1840" y="2700" width="395.75" height="60" as="geometry" />
        </mxCell>
        <mxCell id="bd66M0HTxPimwIOGu9iC-112" value="" style="rounded=0;whiteSpace=wrap;html=1;dashed=1;strokeColor=#FFD966;strokeWidth=2;fillColor=#ffffff;" vertex="1" parent="1">
          <mxGeometry x="1662" y="2770" width="568" height="80" as="geometry" />
        </mxCell>
        <mxCell id="tzb5yaRrSsXEz6ic2CVl-146" value="" style="rounded=0;whiteSpace=wrap;html=1;" parent="1" vertex="1">
          <mxGeometry x="50" y="2760" width="590" height="440" as="geometry" />
        </mxCell>
        <mxCell id="bd66M0HTxPimwIOGu9iC-94" value="" style="rounded=0;whiteSpace=wrap;html=1;dashed=1;strokeColor=#FFD966;strokeWidth=2;fillColor=#ffffff;" vertex="1" parent="1">
          <mxGeometry x="75" y="2830" width="530" height="300" as="geometry" />
        </mxCell>
        <mxCell id="tzb5yaRrSsXEz6ic2CVl-111" value="" style="rounded=0;whiteSpace=wrap;html=1;" parent="1" vertex="1">
          <mxGeometry x="50" y="1860" width="590" height="440" as="geometry" />
        </mxCell>
        <mxCell id="bd66M0HTxPimwIOGu9iC-64" style="edgeStyle=orthogonalEdgeStyle;rounded=0;orthogonalLoop=1;jettySize=auto;html=1;entryX=0;entryY=0.5;entryDx=0;entryDy=0;dashed=1;endArrow=none;endFill=0;" edge="1" parent="1" source="bd66M0HTxPimwIOGu9iC-62" target="bd66M0HTxPimwIOGu9iC-63">
          <mxGeometry relative="1" as="geometry" />
        </mxCell>
        <mxCell id="bd66M0HTxPimwIOGu9iC-62" value="" style="rounded=0;whiteSpace=wrap;html=1;dashed=1;strokeColor=#FFD966;strokeWidth=2;fillColor=#ffffff;" vertex="1" parent="1">
          <mxGeometry x="90" y="1930" width="530" height="60" as="geometry" />
        </mxCell>
        <mxCell id="tzb5yaRrSsXEz6ic2CVl-95" value="" style="rounded=0;whiteSpace=wrap;html=1;" parent="1" vertex="1">
          <mxGeometry x="50" y="1410" width="590" height="440" as="geometry" />
        </mxCell>
        <mxCell id="bd66M0HTxPimwIOGu9iC-59" style="edgeStyle=orthogonalEdgeStyle;rounded=0;orthogonalLoop=1;jettySize=auto;html=1;dashed=1;endArrow=none;endFill=0;" edge="1" parent="1" source="bd66M0HTxPimwIOGu9iC-55" target="bd66M0HTxPimwIOGu9iC-57">
          <mxGeometry relative="1" as="geometry" />
        </mxCell>
        <mxCell id="bd66M0HTxPimwIOGu9iC-55" value="" style="rounded=0;whiteSpace=wrap;html=1;dashed=1;strokeWidth=2;strokeColor=#FFD966;" vertex="1" parent="1">
          <mxGeometry x="530" y="1420" width="100" height="60" as="geometry" />
        </mxCell>
        <mxCell id="tzb5yaRrSsXEz6ic2CVl-61" value="" style="rounded=0;whiteSpace=wrap;html=1;" parent="1" vertex="1">
          <mxGeometry x="50" y="40" width="590" height="440" as="geometry" />
        </mxCell>
        <mxCell id="bd66M0HTxPimwIOGu9iC-5" value="" style="rounded=0;whiteSpace=wrap;html=1;dashed=1;strokeWidth=2;strokeColor=#FFD966;" vertex="1" parent="1">
          <mxGeometry x="178.75" y="170" width="352.5" height="210" as="geometry" />
        </mxCell>
        <mxCell id="bd66M0HTxPimwIOGu9iC-4" style="edgeStyle=orthogonalEdgeStyle;rounded=0;orthogonalLoop=1;jettySize=auto;html=1;entryX=0;entryY=0.5;entryDx=0;entryDy=0;dashed=1;endArrow=none;endFill=0;" edge="1" parent="1" source="bd66M0HTxPimwIOGu9iC-1" target="bd66M0HTxPimwIOGu9iC-3">
          <mxGeometry relative="1" as="geometry" />
        </mxCell>
        <mxCell id="bd66M0HTxPimwIOGu9iC-1" value="" style="rounded=0;whiteSpace=wrap;html=1;dashed=1;strokeWidth=2;strokeColor=#FFD966;" vertex="1" parent="1">
          <mxGeometry x="57.5" y="60" width="572.5" height="410" as="geometry" />
        </mxCell>
        <mxCell id="tzb5yaRrSsXEz6ic2CVl-62" value="master/" style="text;html=1;strokeColor=none;fillColor=none;align=center;verticalAlign=middle;whiteSpace=wrap;rounded=0;" parent="1" vertex="1">
          <mxGeometry x="50" y="40" width="50" height="20" as="geometry" />
        </mxCell>
        <mxCell id="tzb5yaRrSsXEz6ic2CVl-64" value="" style="rounded=0;whiteSpace=wrap;html=1;" parent="1" vertex="1">
          <mxGeometry x="50" y="500" width="590" height="440" as="geometry" />
        </mxCell>
        <mxCell id="tzb5yaRrSsXEz6ic2CVl-65" value="master/teams" style="text;html=1;strokeColor=none;fillColor=none;align=center;verticalAlign=middle;whiteSpace=wrap;rounded=0;" parent="1" vertex="1">
          <mxGeometry x="50" y="500" width="90" height="20" as="geometry" />
        </mxCell>
        <mxCell id="tzb5yaRrSsXEz6ic2CVl-67" value="" style="rounded=0;whiteSpace=wrap;html=1;labelBorderColor=#FFD966;strokeColor=#FFD966;" parent="1" vertex="1">
          <mxGeometry x="80" y="580" width="140" height="290" as="geometry" />
        </mxCell>
        <mxCell id="tzb5yaRrSsXEz6ic2CVl-68" value="&lt;b&gt;Wachtrij&lt;/b&gt;" style="text;html=1;fillColor=none;align=center;verticalAlign=middle;whiteSpace=wrap;rounded=0;labelBorderColor=none;strokeColor=#FFD966;" parent="1" vertex="1">
          <mxGeometry x="80" y="560" width="140" height="20" as="geometry" />
        </mxCell>
        <mxCell id="tzb5yaRrSsXEz6ic2CVl-69" value="Team1" style="text;html=1;strokeColor=none;fillColor=none;align=center;verticalAlign=middle;whiteSpace=wrap;rounded=0;labelBorderColor=none;" parent="1" vertex="1">
          <mxGeometry x="80" y="580" width="140" height="20" as="geometry" />
        </mxCell>
        <mxCell id="tzb5yaRrSsXEz6ic2CVl-70" value="Team2" style="text;html=1;fillColor=#f5f5f5;align=center;verticalAlign=middle;whiteSpace=wrap;rounded=0;fontColor=#333333;labelBorderColor=none;strokeColor=#FFD966;" parent="1" vertex="1">
          <mxGeometry x="80" y="600" width="140" height="20" as="geometry" />
        </mxCell>
        <mxCell id="bd66M0HTxPimwIOGu9iC-14" style="edgeStyle=orthogonalEdgeStyle;rounded=0;orthogonalLoop=1;jettySize=auto;html=1;entryX=1;entryY=0.5;entryDx=0;entryDy=0;dashed=1;endArrow=classic;endFill=1;" edge="1" parent="1" source="tzb5yaRrSsXEz6ic2CVl-71" target="bd66M0HTxPimwIOGu9iC-13">
          <mxGeometry relative="1" as="geometry">
            <Array as="points">
              <mxPoint x="30" y="830" />
              <mxPoint x="30" y="888" />
            </Array>
          </mxGeometry>
        </mxCell>
        <mxCell id="tzb5yaRrSsXEz6ic2CVl-71" value="Toevoegen" style="rounded=1;whiteSpace=wrap;html=1;fillColor=#d5e8d4;strokeColor=#82b366;" parent="1" vertex="1">
          <mxGeometry x="230" y="820" width="70" height="20" as="geometry" />
        </mxCell>
        <mxCell id="bd66M0HTxPimwIOGu9iC-17" style="edgeStyle=orthogonalEdgeStyle;rounded=0;orthogonalLoop=1;jettySize=auto;html=1;entryX=1;entryY=0.5;entryDx=0;entryDy=0;dashed=1;endArrow=classic;endFill=1;" edge="1" parent="1" source="tzb5yaRrSsXEz6ic2CVl-72" target="bd66M0HTxPimwIOGu9iC-16">
          <mxGeometry relative="1" as="geometry" />
        </mxCell>
        <mxCell id="tzb5yaRrSsXEz6ic2CVl-72" value="Afwijzen" style="rounded=1;whiteSpace=wrap;html=1;fillColor=#f8cecc;strokeColor=#b85450;" parent="1" vertex="1">
          <mxGeometry x="230" y="850" width="70" height="20" as="geometry" />
        </mxCell>
        <mxCell id="tzb5yaRrSsXEz6ic2CVl-73" value="" style="rounded=0;whiteSpace=wrap;html=1;strokeColor=#0000FF;" parent="1" vertex="1">
          <mxGeometry x="480" y="580" width="120" height="290" as="geometry" />
        </mxCell>
        <mxCell id="tzb5yaRrSsXEz6ic2CVl-74" value="&lt;b&gt;Toegevoegde teams&lt;/b&gt;" style="text;html=1;fillColor=none;align=center;verticalAlign=middle;whiteSpace=wrap;rounded=0;strokeColor=#0000FF;" parent="1" vertex="1">
          <mxGeometry x="480" y="560" width="120" height="20" as="geometry" />
        </mxCell>
        <mxCell id="bd66M0HTxPimwIOGu9iC-18" style="edgeStyle=orthogonalEdgeStyle;rounded=0;orthogonalLoop=1;jettySize=auto;html=1;entryX=0;entryY=0.5;entryDx=0;entryDy=0;dashed=1;endArrow=classic;endFill=1;" edge="1" parent="1" source="tzb5yaRrSsXEz6ic2CVl-75" target="bd66M0HTxPimwIOGu9iC-15">
          <mxGeometry relative="1" as="geometry">
            <Array as="points">
              <mxPoint x="663" y="895" />
              <mxPoint x="663" y="898" />
              <mxPoint x="750" y="898" />
            </Array>
          </mxGeometry>
        </mxCell>
        <mxCell id="tzb5yaRrSsXEz6ic2CVl-75" value="Start quiznight" style="rounded=1;whiteSpace=wrap;html=1;fillColor=#d5e8d4;strokeColor=#82b366;" parent="1" vertex="1">
          <mxGeometry x="495" y="880" width="90" height="30" as="geometry" />
        </mxCell>
        <mxCell id="bd66M0HTxPimwIOGu9iC-29" style="edgeStyle=orthogonalEdgeStyle;rounded=0;orthogonalLoop=1;jettySize=auto;html=1;entryX=0;entryY=0.5;entryDx=0;entryDy=0;dashed=1;endArrow=none;endFill=0;" edge="1" parent="1" source="tzb5yaRrSsXEz6ic2CVl-76" target="bd66M0HTxPimwIOGu9iC-28">
          <mxGeometry relative="1" as="geometry" />
        </mxCell>
        <mxCell id="tzb5yaRrSsXEz6ic2CVl-76" value="Accepted team 1" style="text;html=1;fillColor=none;align=center;verticalAlign=middle;whiteSpace=wrap;rounded=0;strokeColor=#0000FF;" parent="1" vertex="1">
          <mxGeometry x="480" y="585" width="120" height="20" as="geometry" />
        </mxCell>
        <mxCell id="tzb5yaRrSsXEz6ic2CVl-78" value="&lt;font style=&quot;font-size: 24px&quot;&gt;Quiznight&lt;/font&gt;" style="text;html=1;strokeColor=none;fillColor=none;align=center;verticalAlign=middle;whiteSpace=wrap;rounded=0;" parent="1" vertex="1">
          <mxGeometry x="252.5" y="530" width="185" height="40" as="geometry" />
        </mxCell>
        <mxCell id="tzb5yaRrSsXEz6ic2CVl-81" value="" style="rounded=0;whiteSpace=wrap;html=1;" parent="1" vertex="1">
          <mxGeometry x="50" y="960" width="590" height="440" as="geometry" />
        </mxCell>
        <mxCell id="tzb5yaRrSsXEz6ic2CVl-82" value="master/categories" style="text;html=1;strokeColor=none;fillColor=none;align=center;verticalAlign=middle;whiteSpace=wrap;rounded=0;" parent="1" vertex="1">
          <mxGeometry x="50" y="960" width="100" height="20" as="geometry" />
        </mxCell>
        <mxCell id="tzb5yaRrSsXEz6ic2CVl-83" value="" style="rounded=0;whiteSpace=wrap;html=1;strokeColor=#FFD966;" parent="1" vertex="1">
          <mxGeometry x="80" y="1040" width="140" height="290" as="geometry" />
        </mxCell>
        <mxCell id="tzb5yaRrSsXEz6ic2CVl-84" value="&lt;b&gt;Categorie&lt;/b&gt;" style="text;html=1;fillColor=none;align=center;verticalAlign=middle;whiteSpace=wrap;rounded=0;strokeColor=#FFD966;" parent="1" vertex="1">
          <mxGeometry x="80" y="1020" width="140" height="20" as="geometry" />
        </mxCell>
        <mxCell id="tzb5yaRrSsXEz6ic2CVl-85" value="Sport" style="text;html=1;fillColor=none;align=center;verticalAlign=middle;whiteSpace=wrap;rounded=0;strokeColor=#FFD966;" parent="1" vertex="1">
          <mxGeometry x="80" y="1040" width="140" height="20" as="geometry" />
        </mxCell>
        <mxCell id="tzb5yaRrSsXEz6ic2CVl-86" value="Cultuur" style="text;html=1;fillColor=#f5f5f5;align=center;verticalAlign=middle;whiteSpace=wrap;rounded=0;fontColor=#333333;strokeColor=#FFD966;" parent="1" vertex="1">
          <mxGeometry x="80" y="1060" width="140" height="20" as="geometry" />
        </mxCell>
        <mxCell id="bd66M0HTxPimwIOGu9iC-45" style="edgeStyle=orthogonalEdgeStyle;rounded=0;orthogonalLoop=1;jettySize=auto;html=1;dashed=1;endArrow=classic;endFill=1;" edge="1" parent="1" source="tzb5yaRrSsXEz6ic2CVl-87" target="bd66M0HTxPimwIOGu9iC-41">
          <mxGeometry relative="1" as="geometry" />
        </mxCell>
        <mxCell id="tzb5yaRrSsXEz6ic2CVl-87" value="Toevoegen" style="rounded=1;whiteSpace=wrap;html=1;fillColor=#d5e8d4;strokeColor=#82b366;" parent="1" vertex="1">
          <mxGeometry x="80" y="1340" width="140" height="30" as="geometry" />
        </mxCell>
        <mxCell id="bd66M0HTxPimwIOGu9iC-48" style="edgeStyle=orthogonalEdgeStyle;rounded=0;orthogonalLoop=1;jettySize=auto;html=1;entryX=0;entryY=0.5;entryDx=0;entryDy=0;dashed=1;endArrow=none;endFill=0;" edge="1" parent="1" source="tzb5yaRrSsXEz6ic2CVl-89" target="bd66M0HTxPimwIOGu9iC-47">
          <mxGeometry relative="1" as="geometry" />
        </mxCell>
        <mxCell id="tzb5yaRrSsXEz6ic2CVl-89" value="" style="rounded=0;whiteSpace=wrap;html=1;strokeColor=#0000FF;" parent="1" vertex="1">
          <mxGeometry x="450" y="1040" width="150" height="290" as="geometry" />
        </mxCell>
        <mxCell id="tzb5yaRrSsXEz6ic2CVl-90" value="&lt;b&gt;Toegevoegde categorieën&lt;/b&gt;" style="text;html=1;fillColor=none;align=center;verticalAlign=middle;whiteSpace=wrap;rounded=0;strokeColor=#0000FF;" parent="1" vertex="1">
          <mxGeometry x="450" y="1020" width="150" height="20" as="geometry" />
        </mxCell>
        <mxCell id="bd66M0HTxPimwIOGu9iC-39" style="edgeStyle=orthogonalEdgeStyle;rounded=0;orthogonalLoop=1;jettySize=auto;html=1;entryX=0;entryY=0.5;entryDx=0;entryDy=0;dashed=1;endArrow=classic;endFill=1;" edge="1" parent="1" source="tzb5yaRrSsXEz6ic2CVl-91" target="bd66M0HTxPimwIOGu9iC-37">
          <mxGeometry relative="1" as="geometry" />
        </mxCell>
        <mxCell id="tzb5yaRrSsXEz6ic2CVl-91" value="Start quizround" style="rounded=1;whiteSpace=wrap;html=1;fillColor=#d5e8d4;strokeColor=#82b366;" parent="1" vertex="1">
          <mxGeometry x="460" y="1340" width="140" height="30" as="geometry" />
        </mxCell>
        <mxCell id="tzb5yaRrSsXEz6ic2CVl-92" value="Hobbies" style="text;html=1;fillColor=none;align=center;verticalAlign=middle;whiteSpace=wrap;rounded=0;strokeColor=#0000FF;" parent="1" vertex="1">
          <mxGeometry x="450" y="1040" width="110" height="20" as="geometry" />
        </mxCell>
        <mxCell id="tzb5yaRrSsXEz6ic2CVl-93" value="&lt;font style=&quot;font-size: 24px&quot;&gt;Categorieën&lt;/font&gt;" style="text;html=1;strokeColor=none;fillColor=none;align=center;verticalAlign=middle;whiteSpace=wrap;rounded=0;" parent="1" vertex="1">
          <mxGeometry x="252.5" y="990" width="185" height="40" as="geometry" />
        </mxCell>
        <mxCell id="bd66M0HTxPimwIOGu9iC-44" style="edgeStyle=orthogonalEdgeStyle;rounded=0;orthogonalLoop=1;jettySize=auto;html=1;dashed=1;endArrow=classic;endFill=1;" edge="1" parent="1" source="tzb5yaRrSsXEz6ic2CVl-94" target="bd66M0HTxPimwIOGu9iC-43">
          <mxGeometry relative="1" as="geometry" />
        </mxCell>
        <mxCell id="tzb5yaRrSsXEz6ic2CVl-94" value="-" style="rounded=1;whiteSpace=wrap;html=1;fillColor=#f8cecc;strokeColor=#0000FF;" parent="1" vertex="1">
          <mxGeometry x="560" y="1040" width="40" height="20" as="geometry" />
        </mxCell>
        <mxCell id="tzb5yaRrSsXEz6ic2CVl-96" value="master/question" style="text;html=1;strokeColor=none;fillColor=none;align=center;verticalAlign=middle;whiteSpace=wrap;rounded=0;" parent="1" vertex="1">
          <mxGeometry x="50" y="1410" width="90" height="20" as="geometry" />
        </mxCell>
        <mxCell id="tzb5yaRrSsXEz6ic2CVl-97" value="&lt;font style=&quot;font-size: 24px&quot;&gt;Kies vraag&lt;/font&gt;" style="text;html=1;strokeColor=none;fillColor=none;align=center;verticalAlign=middle;whiteSpace=wrap;rounded=0;" parent="1" vertex="1">
          <mxGeometry x="252.5" y="1440" width="185" height="40" as="geometry" />
        </mxCell>
        <mxCell id="tzb5yaRrSsXEz6ic2CVl-98" value="" style="rounded=0;whiteSpace=wrap;html=1;strokeColor=#0000FF;" parent="1" vertex="1">
          <mxGeometry x="80" y="1490" width="540" height="310" as="geometry" />
        </mxCell>
        <mxCell id="bd66M0HTxPimwIOGu9iC-34" style="edgeStyle=orthogonalEdgeStyle;rounded=0;orthogonalLoop=1;jettySize=auto;html=1;entryX=0;entryY=0.5;entryDx=0;entryDy=0;dashed=1;endArrow=none;endFill=0;" edge="1" parent="1" source="tzb5yaRrSsXEz6ic2CVl-102" target="bd66M0HTxPimwIOGu9iC-33">
          <mxGeometry relative="1" as="geometry" />
        </mxCell>
        <mxCell id="tzb5yaRrSsXEz6ic2CVl-102" value="564125" style="text;html=1;fillColor=none;align=center;verticalAlign=middle;whiteSpace=wrap;rounded=0;strokeColor=#FF3333;" parent="1" vertex="1">
          <mxGeometry x="530" y="510" width="75" height="20" as="geometry" />
        </mxCell>
        <mxCell id="tzb5yaRrSsXEz6ic2CVl-103" value="564125" style="text;html=1;fillColor=none;align=center;verticalAlign=middle;whiteSpace=wrap;rounded=0;" parent="1" vertex="1">
          <mxGeometry x="525" y="980" width="75" height="20" as="geometry" />
        </mxCell>
        <mxCell id="tzb5yaRrSsXEz6ic2CVl-104" value="Categorie1" style="text;html=1;fillColor=none;align=center;verticalAlign=middle;whiteSpace=wrap;rounded=0;strokeColor=#0000FF;" parent="1" vertex="1">
          <mxGeometry x="80" y="1490" width="210" height="20" as="geometry" />
        </mxCell>
        <mxCell id="tzb5yaRrSsXEz6ic2CVl-105" value="Vraag 1" style="text;html=1;fillColor=none;align=center;verticalAlign=middle;whiteSpace=wrap;rounded=0;strokeColor=#0000FF;" parent="1" vertex="1">
          <mxGeometry x="290" y="1490" width="330" height="20" as="geometry" />
        </mxCell>
        <mxCell id="tzb5yaRrSsXEz6ic2CVl-106" value="Categorie2" style="text;html=1;fillColor=none;align=center;verticalAlign=middle;whiteSpace=wrap;rounded=0;strokeColor=#0000FF;" parent="1" vertex="1">
          <mxGeometry x="80" y="1510" width="210" height="20" as="geometry" />
        </mxCell>
        <mxCell id="tzb5yaRrSsXEz6ic2CVl-107" value="Vraag 2" style="text;html=1;fillColor=none;align=center;verticalAlign=middle;whiteSpace=wrap;rounded=0;strokeColor=#0000FF;" parent="1" vertex="1">
          <mxGeometry x="290" y="1510" width="330" height="20" as="geometry" />
        </mxCell>
        <mxCell id="bd66M0HTxPimwIOGu9iC-50" style="edgeStyle=orthogonalEdgeStyle;rounded=0;orthogonalLoop=1;jettySize=auto;html=1;entryX=1;entryY=0.5;entryDx=0;entryDy=0;dashed=1;endArrow=classic;endFill=1;" edge="1" parent="1" source="tzb5yaRrSsXEz6ic2CVl-108" target="bd66M0HTxPimwIOGu9iC-49">
          <mxGeometry relative="1" as="geometry" />
        </mxCell>
        <mxCell id="tzb5yaRrSsXEz6ic2CVl-108" value="Categorie3" style="text;html=1;fillColor=#f5f5f5;align=center;verticalAlign=middle;whiteSpace=wrap;rounded=0;fontColor=#333333;strokeColor=#FF3333;" parent="1" vertex="1">
          <mxGeometry x="80" y="1530" width="210" height="20" as="geometry" />
        </mxCell>
        <mxCell id="tzb5yaRrSsXEz6ic2CVl-109" value="Vraag 2" style="text;html=1;fillColor=#f5f5f5;align=center;verticalAlign=middle;whiteSpace=wrap;rounded=0;fontColor=#333333;strokeColor=#FF3333;" parent="1" vertex="1">
          <mxGeometry x="290" y="1530" width="330" height="20" as="geometry" />
        </mxCell>
        <mxCell id="bd66M0HTxPimwIOGu9iC-58" style="edgeStyle=orthogonalEdgeStyle;rounded=0;orthogonalLoop=1;jettySize=auto;html=1;entryX=0;entryY=0.5;entryDx=0;entryDy=0;dashed=1;endArrow=classic;endFill=1;" edge="1" parent="1" source="tzb5yaRrSsXEz6ic2CVl-110" target="bd66M0HTxPimwIOGu9iC-56">
          <mxGeometry relative="1" as="geometry" />
        </mxCell>
        <mxCell id="tzb5yaRrSsXEz6ic2CVl-110" value="Stel vraag" style="rounded=1;whiteSpace=wrap;html=1;fillColor=#d5e8d4;strokeColor=#82b366;" parent="1" vertex="1">
          <mxGeometry x="527.5" y="1810" width="90" height="30" as="geometry" />
        </mxCell>
        <mxCell id="tzb5yaRrSsXEz6ic2CVl-112" value="master/grade" style="text;html=1;strokeColor=none;fillColor=none;align=center;verticalAlign=middle;whiteSpace=wrap;rounded=0;" parent="1" vertex="1">
          <mxGeometry x="50" y="1860" width="80" height="20" as="geometry" />
        </mxCell>
        <mxCell id="tzb5yaRrSsXEz6ic2CVl-113" value="&lt;font style=&quot;font-size: 24px&quot;&gt;Beoordelen&lt;/font&gt;" style="text;html=1;strokeColor=none;fillColor=none;align=center;verticalAlign=middle;whiteSpace=wrap;rounded=0;" parent="1" vertex="1">
          <mxGeometry x="252.5" y="1890" width="185" height="40" as="geometry" />
        </mxCell>
        <mxCell id="tzb5yaRrSsXEz6ic2CVl-114" value="" style="rounded=0;whiteSpace=wrap;html=1;strokeColor=#0000FF;" parent="1" vertex="1">
          <mxGeometry x="90" y="2040" width="530" height="210" as="geometry" />
        </mxCell>
        <mxCell id="tzb5yaRrSsXEz6ic2CVl-115" value="Team1" style="text;html=1;strokeColor=none;fillColor=none;align=center;verticalAlign=middle;whiteSpace=wrap;rounded=0;" parent="1" vertex="1">
          <mxGeometry x="100" y="2050" width="40" height="20" as="geometry" />
        </mxCell>
        <mxCell id="tzb5yaRrSsXEz6ic2CVl-116" value="antwoord 1" style="text;html=1;strokeColor=none;fillColor=none;align=center;verticalAlign=middle;whiteSpace=wrap;rounded=0;" parent="1" vertex="1">
          <mxGeometry x="155" y="2050" width="155" height="20" as="geometry" />
        </mxCell>
        <mxCell id="bd66M0HTxPimwIOGu9iC-61" style="edgeStyle=orthogonalEdgeStyle;rounded=0;orthogonalLoop=1;jettySize=auto;html=1;entryX=0.5;entryY=0;entryDx=0;entryDy=0;dashed=1;endArrow=classic;endFill=1;exitX=1;exitY=0.5;exitDx=0;exitDy=0;" edge="1" parent="1" source="tzb5yaRrSsXEz6ic2CVl-124" target="bd66M0HTxPimwIOGu9iC-60">
          <mxGeometry relative="1" as="geometry">
            <Array as="points">
              <mxPoint x="850" y="2275" />
            </Array>
          </mxGeometry>
        </mxCell>
        <mxCell id="tzb5yaRrSsXEz6ic2CVl-117" value="" style="rounded=1;whiteSpace=wrap;html=1;fillColor=#d5e8d4;strokeColor=#82b366;" parent="1" vertex="1">
          <mxGeometry x="285" y="2050" width="50" height="20" as="geometry" />
        </mxCell>
        <mxCell id="tzb5yaRrSsXEz6ic2CVl-119" value="Team2" style="text;html=1;fillColor=none;align=center;verticalAlign=middle;whiteSpace=wrap;rounded=0;strokeColor=#FF3333;" parent="1" vertex="1">
          <mxGeometry x="100" y="2080" width="40" height="20" as="geometry" />
        </mxCell>
        <mxCell id="tzb5yaRrSsXEz6ic2CVl-120" value="antwoord 2" style="text;html=1;fillColor=none;align=center;verticalAlign=middle;whiteSpace=wrap;rounded=0;strokeColor=#FF3333;" parent="1" vertex="1">
          <mxGeometry x="155" y="2080" width="155" height="20" as="geometry" />
        </mxCell>
        <mxCell id="tzb5yaRrSsXEz6ic2CVl-121" value="" style="rounded=1;whiteSpace=wrap;html=1;fillColor=#f8cecc;strokeColor=#FF3333;" parent="1" vertex="1">
          <mxGeometry x="285" y="2080" width="50" height="20" as="geometry" />
        </mxCell>
        <mxCell id="tzb5yaRrSsXEz6ic2CVl-122" value="" style="ellipse;whiteSpace=wrap;html=1;aspect=fixed;fillColor=#f8cecc;strokeColor=#FF3333;" parent="1" vertex="1">
          <mxGeometry x="285" y="2080" width="20" height="20" as="geometry" />
        </mxCell>
        <mxCell id="bd66M0HTxPimwIOGu9iC-75" style="edgeStyle=orthogonalEdgeStyle;rounded=0;orthogonalLoop=1;jettySize=auto;html=1;dashed=1;endArrow=classic;endFill=1;" edge="1" parent="1" source="tzb5yaRrSsXEz6ic2CVl-124" target="bd66M0HTxPimwIOGu9iC-73">
          <mxGeometry relative="1" as="geometry">
            <Array as="points">
              <mxPoint x="600" y="2235" />
            </Array>
          </mxGeometry>
        </mxCell>
        <mxCell id="tzb5yaRrSsXEz6ic2CVl-124" value="Volgende vraag" style="rounded=1;whiteSpace=wrap;html=1;fillColor=#f5f5f5;strokeColor=#666666;fontColor=#333333;" parent="1" vertex="1">
          <mxGeometry x="530" y="2260" width="90" height="30" as="geometry" />
        </mxCell>
        <mxCell id="bd66M0HTxPimwIOGu9iC-72" style="edgeStyle=orthogonalEdgeStyle;rounded=0;orthogonalLoop=1;jettySize=auto;html=1;entryX=1;entryY=0.5;entryDx=0;entryDy=0;dashed=1;endArrow=classic;endFill=1;" edge="1" parent="1" source="tzb5yaRrSsXEz6ic2CVl-126" target="bd66M0HTxPimwIOGu9iC-71">
          <mxGeometry relative="1" as="geometry" />
        </mxCell>
        <mxCell id="tzb5yaRrSsXEz6ic2CVl-126" value="Stop vraag" style="rounded=1;whiteSpace=wrap;html=1;" parent="1" vertex="1">
          <mxGeometry x="435" y="2260" width="90" height="30" as="geometry" />
        </mxCell>
        <mxCell id="tzb5yaRrSsXEz6ic2CVl-127" value="Disabled totdat alle teams hebben geantwoord OF de master stop vraag heeft ingedrukt" style="text;html=1;strokeColor=none;fillColor=none;align=center;verticalAlign=middle;whiteSpace=wrap;rounded=0;" parent="1" vertex="1">
          <mxGeometry x="680" y="2150" width="290" height="30" as="geometry" />
        </mxCell>
        <mxCell id="tzb5yaRrSsXEz6ic2CVl-128" value="Vraag 1/12" style="text;html=1;strokeColor=none;fillColor=none;align=center;verticalAlign=middle;whiteSpace=wrap;rounded=0;" parent="1" vertex="1">
          <mxGeometry x="545" y="1910" width="75" height="20" as="geometry" />
        </mxCell>
        <mxCell id="tzb5yaRrSsXEz6ic2CVl-129" value="Quizronde 1" style="text;html=1;strokeColor=none;fillColor=none;align=center;verticalAlign=middle;whiteSpace=wrap;rounded=0;" parent="1" vertex="1">
          <mxGeometry x="545" y="1890" width="75" height="20" as="geometry" />
        </mxCell>
        <mxCell id="tzb5yaRrSsXEz6ic2CVl-130" value="564125" style="text;html=1;strokeColor=none;fillColor=none;align=center;verticalAlign=middle;whiteSpace=wrap;rounded=0;" parent="1" vertex="1">
          <mxGeometry x="545" y="1870" width="75" height="20" as="geometry" />
        </mxCell>
        <mxCell id="tzb5yaRrSsXEz6ic2CVl-131" value="" style="rounded=0;whiteSpace=wrap;html=1;" parent="1" vertex="1">
          <mxGeometry x="50" y="2310" width="590" height="440" as="geometry" />
        </mxCell>
        <mxCell id="tzb5yaRrSsXEz6ic2CVl-132" value="master/round-end" style="text;html=1;strokeColor=none;fillColor=none;align=center;verticalAlign=middle;whiteSpace=wrap;rounded=0;" parent="1" vertex="1">
          <mxGeometry x="50" y="2310" width="100" height="20" as="geometry" />
        </mxCell>
        <mxCell id="tzb5yaRrSsXEz6ic2CVl-133" value="&lt;font style=&quot;font-size: 24px&quot;&gt;Einde quizronde&lt;/font&gt;" style="text;html=1;strokeColor=none;fillColor=none;align=center;verticalAlign=middle;whiteSpace=wrap;rounded=0;" parent="1" vertex="1">
          <mxGeometry x="252.5" y="2340" width="185" height="40" as="geometry" />
        </mxCell>
        <mxCell id="tzb5yaRrSsXEz6ic2CVl-134" value="Vraag 12/12" style="text;html=1;strokeColor=none;fillColor=none;align=center;verticalAlign=middle;whiteSpace=wrap;rounded=0;" parent="1" vertex="1">
          <mxGeometry x="545" y="2360" width="75" height="20" as="geometry" />
        </mxCell>
        <mxCell id="tzb5yaRrSsXEz6ic2CVl-135" value="Quizronde 4" style="text;html=1;strokeColor=none;fillColor=none;align=center;verticalAlign=middle;whiteSpace=wrap;rounded=0;" parent="1" vertex="1">
          <mxGeometry x="545" y="2340" width="75" height="20" as="geometry" />
        </mxCell>
        <mxCell id="tzb5yaRrSsXEz6ic2CVl-136" value="564125" style="text;html=1;strokeColor=none;fillColor=none;align=center;verticalAlign=middle;whiteSpace=wrap;rounded=0;" parent="1" vertex="1">
          <mxGeometry x="545" y="2320" width="75" height="20" as="geometry" />
        </mxCell>
        <mxCell id="bd66M0HTxPimwIOGu9iC-91" style="edgeStyle=orthogonalEdgeStyle;rounded=0;orthogonalLoop=1;jettySize=auto;html=1;entryX=1;entryY=0.5;entryDx=0;entryDy=0;dashed=1;startArrow=none;startFill=0;endArrow=classic;endFill=1;" edge="1" parent="1" source="tzb5yaRrSsXEz6ic2CVl-137" target="bd66M0HTxPimwIOGu9iC-90">
          <mxGeometry relative="1" as="geometry">
            <Array as="points">
              <mxPoint x="89" y="2520" />
              <mxPoint x="89" y="2555" />
            </Array>
          </mxGeometry>
        </mxCell>
        <mxCell id="tzb5yaRrSsXEz6ic2CVl-137" value="Beëindig quiznight" style="rounded=1;whiteSpace=wrap;html=1;fillColor=#f8cecc;strokeColor=#b85450;" parent="1" vertex="1">
          <mxGeometry x="177.5" y="2470" width="132.5" height="60" as="geometry" />
        </mxCell>
        <mxCell id="bd66M0HTxPimwIOGu9iC-88" style="edgeStyle=orthogonalEdgeStyle;rounded=0;orthogonalLoop=1;jettySize=auto;html=1;dashed=1;startArrow=none;startFill=0;endArrow=classic;endFill=1;" edge="1" parent="1" source="tzb5yaRrSsXEz6ic2CVl-138" target="bd66M0HTxPimwIOGu9iC-87">
          <mxGeometry relative="1" as="geometry" />
        </mxCell>
        <mxCell id="tzb5yaRrSsXEz6ic2CVl-138" value="Volgende ronde" style="rounded=1;whiteSpace=wrap;html=1;fillColor=#d5e8d4;strokeColor=#82b366;" parent="1" vertex="1">
          <mxGeometry x="360" y="2470" width="120" height="60" as="geometry" />
        </mxCell>
        <mxCell id="tzb5yaRrSsXEz6ic2CVl-147" value="master/end" style="text;html=1;strokeColor=none;fillColor=none;align=center;verticalAlign=middle;whiteSpace=wrap;rounded=0;" parent="1" vertex="1">
          <mxGeometry x="50" y="2760" width="70" height="20" as="geometry" />
        </mxCell>
        <mxCell id="tzb5yaRrSsXEz6ic2CVl-148" value="&lt;font style=&quot;font-size: 24px&quot;&gt;Einde quiznight&lt;/font&gt;" style="text;html=1;strokeColor=none;fillColor=none;align=center;verticalAlign=middle;whiteSpace=wrap;rounded=0;" parent="1" vertex="1">
          <mxGeometry x="252.5" y="2790" width="185" height="40" as="geometry" />
        </mxCell>
        <mxCell id="tzb5yaRrSsXEz6ic2CVl-149" value="Vraag 12/12" style="text;html=1;strokeColor=none;fillColor=none;align=center;verticalAlign=middle;whiteSpace=wrap;rounded=0;" parent="1" vertex="1">
          <mxGeometry x="545" y="2810" width="75" height="20" as="geometry" />
        </mxCell>
        <mxCell id="tzb5yaRrSsXEz6ic2CVl-150" value="Quizronde 4" style="text;html=1;strokeColor=none;fillColor=none;align=center;verticalAlign=middle;whiteSpace=wrap;rounded=0;" parent="1" vertex="1">
          <mxGeometry x="545" y="2790" width="75" height="20" as="geometry" />
        </mxCell>
        <mxCell id="tzb5yaRrSsXEz6ic2CVl-151" value="564125" style="text;html=1;strokeColor=none;fillColor=none;align=center;verticalAlign=middle;whiteSpace=wrap;rounded=0;" parent="1" vertex="1">
          <mxGeometry x="545" y="2770" width="75" height="20" as="geometry" />
        </mxCell>
        <mxCell id="bd66M0HTxPimwIOGu9iC-102" style="edgeStyle=orthogonalEdgeStyle;rounded=0;orthogonalLoop=1;jettySize=auto;html=1;entryX=0;entryY=0.5;entryDx=0;entryDy=0;dashed=1;startArrow=none;startFill=0;endArrow=classic;endFill=1;" edge="1" parent="1" source="tzb5yaRrSsXEz6ic2CVl-153" target="bd66M0HTxPimwIOGu9iC-101">
          <mxGeometry relative="1" as="geometry" />
        </mxCell>
        <mxCell id="tzb5yaRrSsXEz6ic2CVl-153" value="Home" style="rounded=1;whiteSpace=wrap;html=1;" parent="1" vertex="1">
          <mxGeometry x="490" y="3160" width="90" height="30" as="geometry" />
        </mxCell>
        <mxCell id="tzb5yaRrSsXEz6ic2CVl-162" value="Eindscore" style="text;html=1;fillColor=none;align=center;verticalAlign=middle;whiteSpace=wrap;rounded=0;strokeColor=#0000FF;" parent="1" vertex="1">
          <mxGeometry x="110" y="2930" width="80" height="20" as="geometry" />
        </mxCell>
        <mxCell id="tzb5yaRrSsXEz6ic2CVl-164" value="scoreboard/question" style="text;html=1;strokeColor=none;fillColor=none;align=center;verticalAlign=middle;whiteSpace=wrap;rounded=0;" parent="1" vertex="1">
          <mxGeometry x="1652" y="2690" width="118" height="20" as="geometry" />
        </mxCell>
        <mxCell id="tzb5yaRrSsXEz6ic2CVl-166" value="" style="rounded=0;whiteSpace=wrap;html=1;strokeColor=#FF3333;" parent="1" vertex="1">
          <mxGeometry x="1692" y="2910" width="530" height="180" as="geometry" />
        </mxCell>
        <mxCell id="tzb5yaRrSsXEz6ic2CVl-167" value="Team1" style="text;html=1;strokeColor=none;fillColor=none;align=center;verticalAlign=middle;whiteSpace=wrap;rounded=0;" parent="1" vertex="1">
          <mxGeometry x="1702" y="2910" width="40" height="20" as="geometry" />
        </mxCell>
        <mxCell id="tzb5yaRrSsXEz6ic2CVl-171" value="Team3" style="text;html=1;fillColor=none;align=center;verticalAlign=middle;whiteSpace=wrap;rounded=0;strokeColor=#0000FF;" parent="1" vertex="1">
          <mxGeometry x="1702" y="2930" width="40" height="20" as="geometry" />
        </mxCell>
        <mxCell id="tzb5yaRrSsXEz6ic2CVl-177" value="&lt;font style=&quot;font-size: 24px&quot;&gt;Vraag 1/12&lt;/font&gt;" style="text;html=1;strokeColor=none;fillColor=none;align=center;verticalAlign=middle;whiteSpace=wrap;rounded=0;" parent="1" vertex="1">
          <mxGeometry x="1880.75" y="2700" width="132.5" height="20" as="geometry" />
        </mxCell>
        <mxCell id="tzb5yaRrSsXEz6ic2CVl-178" value="&lt;font style=&quot;font-size: 18px&quot;&gt;Quizronde 1&lt;/font&gt;" style="text;html=1;strokeColor=none;fillColor=none;align=center;verticalAlign=middle;whiteSpace=wrap;rounded=0;" parent="1" vertex="1">
          <mxGeometry x="1885.75" y="2730" width="142.5" height="20" as="geometry" />
        </mxCell>
        <mxCell id="tzb5yaRrSsXEz6ic2CVl-179" value="564125" style="text;html=1;fillColor=none;align=center;verticalAlign=middle;whiteSpace=wrap;rounded=0;" parent="1" vertex="1">
          <mxGeometry x="2147" y="2700" width="75" height="20" as="geometry" />
        </mxCell>
        <mxCell id="tzb5yaRrSsXEz6ic2CVl-180" value="" style="rounded=0;whiteSpace=wrap;html=1;" parent="1" vertex="1">
          <mxGeometry x="1652" y="3670" width="590" height="440" as="geometry" />
        </mxCell>
        <mxCell id="tzb5yaRrSsXEz6ic2CVl-181" value="scoreboard/round-end" style="text;html=1;strokeColor=none;fillColor=none;align=center;verticalAlign=middle;whiteSpace=wrap;rounded=0;" parent="1" vertex="1">
          <mxGeometry x="1652" y="3670" width="138" height="20" as="geometry" />
        </mxCell>
        <mxCell id="tzb5yaRrSsXEz6ic2CVl-183" value="Vraag 12/12" style="text;html=1;strokeColor=none;fillColor=none;align=center;verticalAlign=middle;whiteSpace=wrap;rounded=0;" parent="1" vertex="1">
          <mxGeometry x="2147" y="3720" width="75" height="20" as="geometry" />
        </mxCell>
        <mxCell id="tzb5yaRrSsXEz6ic2CVl-184" value="Quizronde 4" style="text;html=1;strokeColor=none;fillColor=none;align=center;verticalAlign=middle;whiteSpace=wrap;rounded=0;" parent="1" vertex="1">
          <mxGeometry x="2147" y="3700" width="75" height="20" as="geometry" />
        </mxCell>
        <mxCell id="tzb5yaRrSsXEz6ic2CVl-185" value="564125" style="text;html=1;strokeColor=none;fillColor=none;align=center;verticalAlign=middle;whiteSpace=wrap;rounded=0;" parent="1" vertex="1">
          <mxGeometry x="2147" y="3680" width="75" height="20" as="geometry" />
        </mxCell>
        <mxCell id="tzb5yaRrSsXEz6ic2CVl-188" value="" style="rounded=0;whiteSpace=wrap;html=1;" parent="1" vertex="1">
          <mxGeometry x="1702" y="3760" width="480" height="260" as="geometry" />
        </mxCell>
        <mxCell id="tzb5yaRrSsXEz6ic2CVl-189" value="Team 1" style="text;html=1;strokeColor=none;fillColor=none;align=center;verticalAlign=middle;whiteSpace=wrap;rounded=0;" parent="1" vertex="1">
          <mxGeometry x="1712" y="3800" width="110" height="20" as="geometry" />
        </mxCell>
        <mxCell id="tzb5yaRrSsXEz6ic2CVl-190" value="14" style="text;html=1;strokeColor=none;fillColor=none;align=center;verticalAlign=middle;whiteSpace=wrap;rounded=0;" parent="1" vertex="1">
          <mxGeometry x="1972" y="3800" width="110" height="20" as="geometry" />
        </mxCell>
        <mxCell id="tzb5yaRrSsXEz6ic2CVl-191" value="Team 3" style="text;html=1;strokeColor=none;fillColor=none;align=center;verticalAlign=middle;whiteSpace=wrap;rounded=0;" parent="1" vertex="1">
          <mxGeometry x="1712" y="3820" width="110" height="20" as="geometry" />
        </mxCell>
        <mxCell id="tzb5yaRrSsXEz6ic2CVl-192" value="11" style="text;html=1;strokeColor=none;fillColor=none;align=center;verticalAlign=middle;whiteSpace=wrap;rounded=0;" parent="1" vertex="1">
          <mxGeometry x="1972" y="3820" width="110" height="20" as="geometry" />
        </mxCell>
        <mxCell id="tzb5yaRrSsXEz6ic2CVl-193" value="Team 2" style="text;html=1;strokeColor=none;fillColor=none;align=center;verticalAlign=middle;whiteSpace=wrap;rounded=0;" parent="1" vertex="1">
          <mxGeometry x="1712" y="3840" width="110" height="20" as="geometry" />
        </mxCell>
        <mxCell id="tzb5yaRrSsXEz6ic2CVl-194" value="10" style="text;html=1;strokeColor=none;fillColor=none;align=center;verticalAlign=middle;whiteSpace=wrap;rounded=0;" parent="1" vertex="1">
          <mxGeometry x="1972" y="3840" width="110" height="20" as="geometry" />
        </mxCell>
        <mxCell id="tzb5yaRrSsXEz6ic2CVl-195" value="&lt;font style=&quot;font-size: 36px&quot;&gt;Tussenstand&lt;/font&gt;" style="text;html=1;strokeColor=none;fillColor=none;align=center;verticalAlign=middle;whiteSpace=wrap;rounded=0;" parent="1" vertex="1">
          <mxGeometry x="1899.5" y="3700" width="80" height="20" as="geometry" />
        </mxCell>
        <mxCell id="tzb5yaRrSsXEz6ic2CVl-196" value="Wat is de hoofdstad van Frankrijk?" style="text;html=1;strokeColor=none;fillColor=none;align=center;verticalAlign=middle;whiteSpace=wrap;rounded=0;" parent="1" vertex="1">
          <mxGeometry x="395" y="1940" width="230" height="20" as="geometry" />
        </mxCell>
        <mxCell id="tzb5yaRrSsXEz6ic2CVl-197" value="Topografie" style="text;html=1;strokeColor=none;fillColor=none;align=center;verticalAlign=middle;whiteSpace=wrap;rounded=0;" parent="1" vertex="1">
          <mxGeometry x="90" y="1940" width="70" height="20" as="geometry" />
        </mxCell>
        <mxCell id="tzb5yaRrSsXEz6ic2CVl-198" value="Parijs" style="text;html=1;strokeColor=none;fillColor=none;align=center;verticalAlign=middle;whiteSpace=wrap;rounded=0;" parent="1" vertex="1">
          <mxGeometry x="560" y="1960" width="40" height="20" as="geometry" />
        </mxCell>
        <mxCell id="tzb5yaRrSsXEz6ic2CVl-199" value="&lt;font style=&quot;font-size: 36px&quot;&gt;Wat is de hoofdstad van Frankrijk?&lt;/font&gt;" style="text;html=1;strokeColor=none;fillColor=none;align=center;verticalAlign=middle;whiteSpace=wrap;rounded=0;" parent="1" vertex="1">
          <mxGeometry x="1652" y="2790" width="590" height="60" as="geometry" />
        </mxCell>
        <mxCell id="tzb5yaRrSsXEz6ic2CVl-200" value="&lt;font style=&quot;font-size: 18px&quot;&gt;Topografie&lt;/font&gt;" style="text;html=1;strokeColor=none;fillColor=none;align=center;verticalAlign=middle;whiteSpace=wrap;rounded=0;" parent="1" vertex="1">
          <mxGeometry x="1672" y="2770" width="70" height="20" as="geometry" />
        </mxCell>
        <mxCell id="tzb5yaRrSsXEz6ic2CVl-203" value="Team2" style="text;html=1;strokeColor=none;fillColor=none;align=center;verticalAlign=middle;whiteSpace=wrap;rounded=0;" parent="1" vertex="1">
          <mxGeometry x="1702" y="2950" width="40" height="20" as="geometry" />
        </mxCell>
        <mxCell id="tzb5yaRrSsXEz6ic2CVl-205" value="10" style="text;html=1;strokeColor=none;fillColor=none;align=center;verticalAlign=middle;whiteSpace=wrap;rounded=0;" parent="1" vertex="1">
          <mxGeometry x="1862" y="3800" width="40" height="20" as="geometry" />
        </mxCell>
        <mxCell id="tzb5yaRrSsXEz6ic2CVl-206" value="9" style="text;html=1;strokeColor=none;fillColor=none;align=center;verticalAlign=middle;whiteSpace=wrap;rounded=0;" parent="1" vertex="1">
          <mxGeometry x="1862" y="3820" width="40" height="20" as="geometry" />
        </mxCell>
        <mxCell id="tzb5yaRrSsXEz6ic2CVl-207" value="8" style="text;html=1;strokeColor=none;fillColor=none;align=center;verticalAlign=middle;whiteSpace=wrap;rounded=0;" parent="1" vertex="1">
          <mxGeometry x="1862" y="3840" width="40" height="20" as="geometry" />
        </mxCell>
        <mxCell id="tzb5yaRrSsXEz6ic2CVl-209" value="" style="rounded=0;whiteSpace=wrap;html=1;" parent="1" vertex="1">
          <mxGeometry x="1702" y="3760" width="480" height="20" as="geometry" />
        </mxCell>
        <mxCell id="tzb5yaRrSsXEz6ic2CVl-210" value="Team" style="text;html=1;strokeColor=none;fillColor=none;align=center;verticalAlign=middle;whiteSpace=wrap;rounded=0;" parent="1" vertex="1">
          <mxGeometry x="1747" y="3760" width="40" height="20" as="geometry" />
        </mxCell>
        <mxCell id="tzb5yaRrSsXEz6ic2CVl-211" value="Goede antwoorden" style="text;html=1;strokeColor=none;fillColor=none;align=center;verticalAlign=middle;whiteSpace=wrap;rounded=0;" parent="1" vertex="1">
          <mxGeometry x="1822" y="3760" width="110" height="20" as="geometry" />
        </mxCell>
        <mxCell id="tzb5yaRrSsXEz6ic2CVl-212" value="Rondepunten" style="text;html=1;strokeColor=none;fillColor=none;align=center;verticalAlign=middle;whiteSpace=wrap;rounded=0;" parent="1" vertex="1">
          <mxGeometry x="1979.5" y="3760" width="95" height="20" as="geometry" />
        </mxCell>
        <mxCell id="tzb5yaRrSsXEz6ic2CVl-240" value="" style="rounded=0;whiteSpace=wrap;html=1;strokeColor=#0000FF;" parent="1" vertex="1">
          <mxGeometry x="110" y="2950" width="480" height="160" as="geometry" />
        </mxCell>
        <mxCell id="tzb5yaRrSsXEz6ic2CVl-241" value="" style="rounded=0;whiteSpace=wrap;html=1;strokeColor=#0000FF;" parent="1" vertex="1">
          <mxGeometry x="110" y="2950" width="480" height="20" as="geometry" />
        </mxCell>
        <mxCell id="tzb5yaRrSsXEz6ic2CVl-242" value="Team" style="text;html=1;strokeColor=none;fillColor=none;align=center;verticalAlign=middle;whiteSpace=wrap;rounded=0;" parent="1" vertex="1">
          <mxGeometry x="161.25" y="2950" width="40" height="20" as="geometry" />
        </mxCell>
        <mxCell id="tzb5yaRrSsXEz6ic2CVl-243" value="Goede antwoorden" style="text;html=1;strokeColor=none;fillColor=none;align=center;verticalAlign=middle;whiteSpace=wrap;rounded=0;" parent="1" vertex="1">
          <mxGeometry x="236.25" y="2950" width="110" height="20" as="geometry" />
        </mxCell>
        <mxCell id="tzb5yaRrSsXEz6ic2CVl-244" value="Rondepunten" style="text;html=1;strokeColor=none;fillColor=none;align=center;verticalAlign=middle;whiteSpace=wrap;rounded=0;" parent="1" vertex="1">
          <mxGeometry x="393.75" y="2950" width="95" height="20" as="geometry" />
        </mxCell>
        <mxCell id="tzb5yaRrSsXEz6ic2CVl-245" value="Team 1" style="text;html=1;fillColor=none;align=center;verticalAlign=middle;whiteSpace=wrap;rounded=0;strokeColor=#FF3333;" parent="1" vertex="1">
          <mxGeometry x="130" y="2980" width="110" height="20" as="geometry" />
        </mxCell>
        <mxCell id="tzb5yaRrSsXEz6ic2CVl-246" value="14" style="text;html=1;fillColor=none;align=center;verticalAlign=middle;whiteSpace=wrap;rounded=0;strokeColor=#FF3333;" parent="1" vertex="1">
          <mxGeometry x="390" y="2980" width="110" height="20" as="geometry" />
        </mxCell>
        <mxCell id="tzb5yaRrSsXEz6ic2CVl-247" value="Team 3" style="text;html=1;strokeColor=none;fillColor=none;align=center;verticalAlign=middle;whiteSpace=wrap;rounded=0;" parent="1" vertex="1">
          <mxGeometry x="130" y="3000" width="110" height="20" as="geometry" />
        </mxCell>
        <mxCell id="tzb5yaRrSsXEz6ic2CVl-248" value="11" style="text;html=1;strokeColor=none;fillColor=none;align=center;verticalAlign=middle;whiteSpace=wrap;rounded=0;" parent="1" vertex="1">
          <mxGeometry x="390" y="3000" width="110" height="20" as="geometry" />
        </mxCell>
        <mxCell id="tzb5yaRrSsXEz6ic2CVl-249" value="Team 2" style="text;html=1;strokeColor=none;fillColor=none;align=center;verticalAlign=middle;whiteSpace=wrap;rounded=0;" parent="1" vertex="1">
          <mxGeometry x="130" y="3020" width="110" height="20" as="geometry" />
        </mxCell>
        <mxCell id="tzb5yaRrSsXEz6ic2CVl-250" value="10" style="text;html=1;strokeColor=none;fillColor=none;align=center;verticalAlign=middle;whiteSpace=wrap;rounded=0;" parent="1" vertex="1">
          <mxGeometry x="390" y="3020" width="110" height="20" as="geometry" />
        </mxCell>
        <mxCell id="tzb5yaRrSsXEz6ic2CVl-251" value="10" style="text;html=1;fillColor=none;align=center;verticalAlign=middle;whiteSpace=wrap;rounded=0;strokeColor=#FF3333;" parent="1" vertex="1">
          <mxGeometry x="280" y="2980" width="40" height="20" as="geometry" />
        </mxCell>
        <mxCell id="tzb5yaRrSsXEz6ic2CVl-252" value="9" style="text;html=1;strokeColor=none;fillColor=none;align=center;verticalAlign=middle;whiteSpace=wrap;rounded=0;" parent="1" vertex="1">
          <mxGeometry x="280" y="3000" width="40" height="20" as="geometry" />
        </mxCell>
        <mxCell id="tzb5yaRrSsXEz6ic2CVl-253" value="8" style="text;html=1;strokeColor=none;fillColor=none;align=center;verticalAlign=middle;whiteSpace=wrap;rounded=0;" parent="1" vertex="1">
          <mxGeometry x="280" y="3020" width="40" height="20" as="geometry" />
        </mxCell>
        <mxCell id="tzb5yaRrSsXEz6ic2CVl-254" value="" style="rounded=0;whiteSpace=wrap;html=1;" parent="1" vertex="1">
          <mxGeometry x="2720" y="10" width="590" height="440" as="geometry" />
        </mxCell>
        <mxCell id="tzb5yaRrSsXEz6ic2CVl-255" value="team" style="text;html=1;strokeColor=none;fillColor=none;align=center;verticalAlign=middle;whiteSpace=wrap;rounded=0;" parent="1" vertex="1">
          <mxGeometry x="2720" y="10" width="40" height="20" as="geometry" />
        </mxCell>
        <mxCell id="tzb5yaRrSsXEz6ic2CVl-256" value="&lt;font style=&quot;font-size: 32px&quot;&gt;Quizzer&lt;/font&gt;" style="text;html=1;strokeColor=none;fillColor=none;align=center;verticalAlign=middle;whiteSpace=wrap;rounded=0;" parent="1" vertex="1">
          <mxGeometry x="2922.5" y="80" width="185" height="40" as="geometry" />
        </mxCell>
        <mxCell id="tzb5yaRrSsXEz6ic2CVl-257" value="Teamnaam" style="rounded=0;whiteSpace=wrap;html=1;" parent="1" vertex="1">
          <mxGeometry x="2955" y="200" width="120" height="30" as="geometry" />
        </mxCell>
        <mxCell id="tzb5yaRrSsXEz6ic2CVl-259" value="Quiznightpin" style="rounded=0;whiteSpace=wrap;html=1;" parent="1" vertex="1">
          <mxGeometry x="2955" y="170" width="120" height="30" as="geometry" />
        </mxCell>
        <mxCell id="tzb5yaRrSsXEz6ic2CVl-260" value="Deelnemen" style="rounded=1;whiteSpace=wrap;html=1;fillColor=#d5e8d4;strokeColor=#82b366;" parent="1" vertex="1">
          <mxGeometry x="2970" y="290" width="90" height="30" as="geometry" />
        </mxCell>
        <mxCell id="tzb5yaRrSsXEz6ic2CVl-261" value="" style="rounded=0;whiteSpace=wrap;html=1;" parent="1" vertex="1">
          <mxGeometry x="2720" y="470" width="590" height="440" as="geometry" />
        </mxCell>
        <mxCell id="tzb5yaRrSsXEz6ic2CVl-262" value="team" style="text;html=1;strokeColor=none;fillColor=none;align=center;verticalAlign=middle;whiteSpace=wrap;rounded=0;" parent="1" vertex="1">
          <mxGeometry x="2720" y="470" width="40" height="20" as="geometry" />
        </mxCell>
        <mxCell id="tzb5yaRrSsXEz6ic2CVl-263" value="&lt;font style=&quot;font-size: 32px&quot;&gt;Quizzer&lt;/font&gt;" style="text;html=1;strokeColor=none;fillColor=none;align=center;verticalAlign=middle;whiteSpace=wrap;rounded=0;" parent="1" vertex="1">
          <mxGeometry x="2922.5" y="540" width="185" height="40" as="geometry" />
        </mxCell>
        <mxCell id="tzb5yaRrSsXEz6ic2CVl-267" value="Super coole teamnaam" style="text;html=1;strokeColor=none;fillColor=none;align=center;verticalAlign=middle;whiteSpace=wrap;rounded=0;" parent="1" vertex="1">
          <mxGeometry x="2947.5" y="580" width="135" height="20" as="geometry" />
        </mxCell>
        <mxCell id="tzb5yaRrSsXEz6ic2CVl-268" value="(Spinner)" style="ellipse;whiteSpace=wrap;html=1;aspect=fixed;" parent="1" vertex="1">
          <mxGeometry x="2975" y="650" width="80" height="80" as="geometry" />
        </mxCell>
        <mxCell id="tzb5yaRrSsXEz6ic2CVl-269" value="Wachten op toelating..." style="text;html=1;strokeColor=none;fillColor=none;align=center;verticalAlign=middle;whiteSpace=wrap;rounded=0;" parent="1" vertex="1">
          <mxGeometry x="2942.5" y="750" width="145" height="20" as="geometry" />
        </mxCell>
        <mxCell id="tzb5yaRrSsXEz6ic2CVl-270" value="" style="rounded=0;whiteSpace=wrap;html=1;" parent="1" vertex="1">
          <mxGeometry x="2720" y="920" width="590" height="440" as="geometry" />
        </mxCell>
        <mxCell id="tzb5yaRrSsXEz6ic2CVl-271" value="team" style="text;html=1;strokeColor=none;fillColor=none;align=center;verticalAlign=middle;whiteSpace=wrap;rounded=0;" parent="1" vertex="1">
          <mxGeometry x="2720" y="920" width="40" height="20" as="geometry" />
        </mxCell>
        <mxCell id="tzb5yaRrSsXEz6ic2CVl-272" value="&lt;font style=&quot;font-size: 32px&quot;&gt;Quizzer&lt;/font&gt;" style="text;html=1;strokeColor=none;fillColor=none;align=center;verticalAlign=middle;whiteSpace=wrap;rounded=0;" parent="1" vertex="1">
          <mxGeometry x="2922.5" y="990" width="185" height="40" as="geometry" />
        </mxCell>
        <mxCell id="tzb5yaRrSsXEz6ic2CVl-273" value="Super coole teamnaam" style="text;html=1;strokeColor=none;fillColor=none;align=center;verticalAlign=middle;whiteSpace=wrap;rounded=0;" parent="1" vertex="1">
          <mxGeometry x="2947.5" y="1030" width="135" height="20" as="geometry" />
        </mxCell>
        <mxCell id="tzb5yaRrSsXEz6ic2CVl-274" value="(Spinner)" style="ellipse;whiteSpace=wrap;html=1;aspect=fixed;" parent="1" vertex="1">
          <mxGeometry x="2975" y="1100" width="80" height="80" as="geometry" />
        </mxCell>
        <mxCell id="tzb5yaRrSsXEz6ic2CVl-275" value="Wachten op vraag..." style="text;html=1;strokeColor=none;fillColor=none;align=center;verticalAlign=middle;whiteSpace=wrap;rounded=0;" parent="1" vertex="1">
          <mxGeometry x="2942.5" y="1200" width="145" height="20" as="geometry" />
        </mxCell>
        <mxCell id="tzb5yaRrSsXEz6ic2CVl-276" value="564125" style="text;html=1;strokeColor=none;fillColor=none;align=center;verticalAlign=middle;whiteSpace=wrap;rounded=0;" parent="1" vertex="1">
          <mxGeometry x="3230" y="490" width="75" height="20" as="geometry" />
        </mxCell>
        <mxCell id="tzb5yaRrSsXEz6ic2CVl-277" value="564125" style="text;html=1;strokeColor=none;fillColor=none;align=center;verticalAlign=middle;whiteSpace=wrap;rounded=0;" parent="1" vertex="1">
          <mxGeometry x="3230" y="930" width="75" height="20" as="geometry" />
        </mxCell>
        <mxCell id="tzb5yaRrSsXEz6ic2CVl-278" value="" style="rounded=0;whiteSpace=wrap;html=1;" parent="1" vertex="1">
          <mxGeometry x="2720" y="1380" width="590" height="440" as="geometry" />
        </mxCell>
        <mxCell id="tzb5yaRrSsXEz6ic2CVl-279" value="team" style="text;html=1;strokeColor=none;fillColor=none;align=center;verticalAlign=middle;whiteSpace=wrap;rounded=0;" parent="1" vertex="1">
          <mxGeometry x="2720" y="1380" width="40" height="20" as="geometry" />
        </mxCell>
        <mxCell id="tzb5yaRrSsXEz6ic2CVl-280" value="&lt;font style=&quot;font-size: 32px&quot;&gt;Quizzer&lt;/font&gt;" style="text;html=1;strokeColor=none;fillColor=none;align=center;verticalAlign=middle;whiteSpace=wrap;rounded=0;" parent="1" vertex="1">
          <mxGeometry x="2922.5" y="1450" width="185" height="40" as="geometry" />
        </mxCell>
        <mxCell id="tzb5yaRrSsXEz6ic2CVl-281" value="Super coole teamnaam" style="text;html=1;strokeColor=none;fillColor=none;align=center;verticalAlign=middle;whiteSpace=wrap;rounded=0;" parent="1" vertex="1">
          <mxGeometry x="2947.5" y="1490" width="135" height="20" as="geometry" />
        </mxCell>
        <mxCell id="tzb5yaRrSsXEz6ic2CVl-284" value="564125" style="text;html=1;strokeColor=none;fillColor=none;align=center;verticalAlign=middle;whiteSpace=wrap;rounded=0;" parent="1" vertex="1">
          <mxGeometry x="3230" y="1390" width="75" height="20" as="geometry" />
        </mxCell>
        <mxCell id="tzb5yaRrSsXEz6ic2CVl-285" value="Vraag 1/12" style="text;html=1;strokeColor=none;fillColor=none;align=center;verticalAlign=middle;whiteSpace=wrap;rounded=0;" parent="1" vertex="1">
          <mxGeometry x="3230" y="1430" width="75" height="20" as="geometry" />
        </mxCell>
        <mxCell id="tzb5yaRrSsXEz6ic2CVl-286" value="Quizronde 1" style="text;html=1;strokeColor=none;fillColor=none;align=center;verticalAlign=middle;whiteSpace=wrap;rounded=0;" parent="1" vertex="1">
          <mxGeometry x="3230" y="1410" width="75" height="20" as="geometry" />
        </mxCell>
        <mxCell id="tzb5yaRrSsXEz6ic2CVl-287" value="&lt;font style=&quot;font-size: 24px&quot;&gt;Wat is de hoofdstad van Frankrijk?&lt;/font&gt;" style="text;html=1;strokeColor=none;fillColor=none;align=center;verticalAlign=middle;whiteSpace=wrap;rounded=0;" parent="1" vertex="1">
          <mxGeometry x="2720" y="1510" width="590" height="50" as="geometry" />
        </mxCell>
        <mxCell id="tzb5yaRrSsXEz6ic2CVl-288" value="Antwoord" style="rounded=0;whiteSpace=wrap;html=1;" parent="1" vertex="1">
          <mxGeometry x="2917.5" y="1582.5" width="195" height="35" as="geometry" />
        </mxCell>
        <mxCell id="tzb5yaRrSsXEz6ic2CVl-289" value="Versturen" style="rounded=1;whiteSpace=wrap;html=1;fillColor=#d5e8d4;strokeColor=#82b366;" parent="1" vertex="1">
          <mxGeometry x="2920" y="1630" width="192.5" height="30" as="geometry" />
        </mxCell>
        <mxCell id="tzb5yaRrSsXEz6ic2CVl-290" value="Na verbetering: herzien" style="text;html=1;strokeColor=none;fillColor=none;align=center;verticalAlign=middle;whiteSpace=wrap;rounded=0;" parent="1" vertex="1">
          <mxGeometry x="3330" y="1630" width="190" height="20" as="geometry" />
        </mxCell>
        <mxCell id="tzb5yaRrSsXEz6ic2CVl-291" value="" style="endArrow=none;dashed=1;html=1;exitX=1;exitY=0.5;exitDx=0;exitDy=0;" parent="1" source="tzb5yaRrSsXEz6ic2CVl-289" target="tzb5yaRrSsXEz6ic2CVl-290" edge="1">
          <mxGeometry width="50" height="50" relative="1" as="geometry">
            <mxPoint x="3140" y="1650" as="sourcePoint" />
            <mxPoint x="3190" y="1600" as="targetPoint" />
          </mxGeometry>
        </mxCell>
        <mxCell id="tzb5yaRrSsXEz6ic2CVl-295" value="&lt;span&gt;11 goede antwoorden&lt;/span&gt;&lt;br&gt;&lt;span&gt;15 rondepunten&lt;/span&gt;" style="rounded=0;whiteSpace=wrap;html=1;fillColor=#dae8fc;strokeColor=#6c8ebf;" parent="1" vertex="1">
          <mxGeometry x="280" y="2840" width="140" height="80" as="geometry" />
        </mxCell>
        <mxCell id="tzb5yaRrSsXEz6ic2CVl-294" value="&lt;font style=&quot;font-size: 16px&quot;&gt;Super cool team&lt;/font&gt;" style="text;html=1;strokeColor=none;fillColor=none;align=center;verticalAlign=middle;whiteSpace=wrap;rounded=0;" parent="1" vertex="1">
          <mxGeometry x="272.5" y="2840" width="145" height="20" as="geometry" />
        </mxCell>
        <mxCell id="tzb5yaRrSsXEz6ic2CVl-296" value="" style="rounded=0;whiteSpace=wrap;html=1;" parent="1" vertex="1">
          <mxGeometry x="1652" y="4130" width="590" height="440" as="geometry" />
        </mxCell>
        <mxCell id="tzb5yaRrSsXEz6ic2CVl-297" value="scoreboard" style="text;html=1;strokeColor=none;fillColor=none;align=center;verticalAlign=middle;whiteSpace=wrap;rounded=0;" parent="1" vertex="1">
          <mxGeometry x="1652" y="4130" width="70" height="20" as="geometry" />
        </mxCell>
        <mxCell id="tzb5yaRrSsXEz6ic2CVl-298" value="&lt;font style=&quot;font-size: 24px&quot;&gt;Einde quiznight&lt;/font&gt;" style="text;html=1;strokeColor=none;fillColor=none;align=center;verticalAlign=middle;whiteSpace=wrap;rounded=0;" parent="1" vertex="1">
          <mxGeometry x="1854.5" y="4160" width="185" height="40" as="geometry" />
        </mxCell>
        <mxCell id="tzb5yaRrSsXEz6ic2CVl-299" value="Vraag 12/12" style="text;html=1;strokeColor=none;fillColor=none;align=center;verticalAlign=middle;whiteSpace=wrap;rounded=0;" parent="1" vertex="1">
          <mxGeometry x="2147" y="4180" width="75" height="20" as="geometry" />
        </mxCell>
        <mxCell id="tzb5yaRrSsXEz6ic2CVl-300" value="Quizronde 4" style="text;html=1;strokeColor=none;fillColor=none;align=center;verticalAlign=middle;whiteSpace=wrap;rounded=0;" parent="1" vertex="1">
          <mxGeometry x="2147" y="4160" width="75" height="20" as="geometry" />
        </mxCell>
        <mxCell id="tzb5yaRrSsXEz6ic2CVl-301" value="564125" style="text;html=1;strokeColor=none;fillColor=none;align=center;verticalAlign=middle;whiteSpace=wrap;rounded=0;" parent="1" vertex="1">
          <mxGeometry x="2147" y="4140" width="75" height="20" as="geometry" />
        </mxCell>
        <mxCell id="tzb5yaRrSsXEz6ic2CVl-303" value="Eindscore" style="text;html=1;strokeColor=none;fillColor=none;align=center;verticalAlign=middle;whiteSpace=wrap;rounded=0;" parent="1" vertex="1">
          <mxGeometry x="1712" y="4300" width="80" height="20" as="geometry" />
        </mxCell>
        <mxCell id="tzb5yaRrSsXEz6ic2CVl-304" value="" style="rounded=0;whiteSpace=wrap;html=1;" parent="1" vertex="1">
          <mxGeometry x="1712" y="4320" width="480" height="160" as="geometry" />
        </mxCell>
        <mxCell id="tzb5yaRrSsXEz6ic2CVl-305" value="" style="rounded=0;whiteSpace=wrap;html=1;" parent="1" vertex="1">
          <mxGeometry x="1712" y="4320" width="480" height="20" as="geometry" />
        </mxCell>
        <mxCell id="tzb5yaRrSsXEz6ic2CVl-306" value="Team" style="text;html=1;strokeColor=none;fillColor=none;align=center;verticalAlign=middle;whiteSpace=wrap;rounded=0;" parent="1" vertex="1">
          <mxGeometry x="1763.25" y="4320" width="40" height="20" as="geometry" />
        </mxCell>
        <mxCell id="tzb5yaRrSsXEz6ic2CVl-307" value="Goede antwoorden" style="text;html=1;strokeColor=none;fillColor=none;align=center;verticalAlign=middle;whiteSpace=wrap;rounded=0;" parent="1" vertex="1">
          <mxGeometry x="1838.25" y="4320" width="110" height="20" as="geometry" />
        </mxCell>
        <mxCell id="tzb5yaRrSsXEz6ic2CVl-308" value="Rondepunten" style="text;html=1;strokeColor=none;fillColor=none;align=center;verticalAlign=middle;whiteSpace=wrap;rounded=0;" parent="1" vertex="1">
          <mxGeometry x="1995.75" y="4320" width="95" height="20" as="geometry" />
        </mxCell>
        <mxCell id="tzb5yaRrSsXEz6ic2CVl-309" value="Team 1" style="text;html=1;strokeColor=none;fillColor=none;align=center;verticalAlign=middle;whiteSpace=wrap;rounded=0;" parent="1" vertex="1">
          <mxGeometry x="1732" y="4350" width="110" height="20" as="geometry" />
        </mxCell>
        <mxCell id="tzb5yaRrSsXEz6ic2CVl-310" value="14" style="text;html=1;strokeColor=none;fillColor=none;align=center;verticalAlign=middle;whiteSpace=wrap;rounded=0;" parent="1" vertex="1">
          <mxGeometry x="1992" y="4350" width="110" height="20" as="geometry" />
        </mxCell>
        <mxCell id="tzb5yaRrSsXEz6ic2CVl-311" value="Team 3" style="text;html=1;strokeColor=none;fillColor=none;align=center;verticalAlign=middle;whiteSpace=wrap;rounded=0;" parent="1" vertex="1">
          <mxGeometry x="1732" y="4370" width="110" height="20" as="geometry" />
        </mxCell>
        <mxCell id="tzb5yaRrSsXEz6ic2CVl-312" value="11" style="text;html=1;strokeColor=none;fillColor=none;align=center;verticalAlign=middle;whiteSpace=wrap;rounded=0;" parent="1" vertex="1">
          <mxGeometry x="1992" y="4370" width="110" height="20" as="geometry" />
        </mxCell>
        <mxCell id="tzb5yaRrSsXEz6ic2CVl-313" value="Team 2" style="text;html=1;strokeColor=none;fillColor=none;align=center;verticalAlign=middle;whiteSpace=wrap;rounded=0;" parent="1" vertex="1">
          <mxGeometry x="1732" y="4390" width="110" height="20" as="geometry" />
        </mxCell>
        <mxCell id="tzb5yaRrSsXEz6ic2CVl-314" value="10" style="text;html=1;strokeColor=none;fillColor=none;align=center;verticalAlign=middle;whiteSpace=wrap;rounded=0;" parent="1" vertex="1">
          <mxGeometry x="1992" y="4390" width="110" height="20" as="geometry" />
        </mxCell>
        <mxCell id="tzb5yaRrSsXEz6ic2CVl-315" value="10" style="text;html=1;strokeColor=none;fillColor=none;align=center;verticalAlign=middle;whiteSpace=wrap;rounded=0;" parent="1" vertex="1">
          <mxGeometry x="1882" y="4350" width="40" height="20" as="geometry" />
        </mxCell>
        <mxCell id="tzb5yaRrSsXEz6ic2CVl-316" value="9" style="text;html=1;strokeColor=none;fillColor=none;align=center;verticalAlign=middle;whiteSpace=wrap;rounded=0;" parent="1" vertex="1">
          <mxGeometry x="1882" y="4370" width="40" height="20" as="geometry" />
        </mxCell>
        <mxCell id="tzb5yaRrSsXEz6ic2CVl-317" value="8" style="text;html=1;strokeColor=none;fillColor=none;align=center;verticalAlign=middle;whiteSpace=wrap;rounded=0;" parent="1" vertex="1">
          <mxGeometry x="1882" y="4390" width="40" height="20" as="geometry" />
        </mxCell>
        <mxCell id="tzb5yaRrSsXEz6ic2CVl-318" value="&lt;span&gt;11 goede antwoorden&lt;/span&gt;&lt;br&gt;&lt;span&gt;15 rondepunten&lt;/span&gt;" style="rounded=0;whiteSpace=wrap;html=1;fillColor=#dae8fc;strokeColor=#6c8ebf;" parent="1" vertex="1">
          <mxGeometry x="1882" y="4210" width="140" height="80" as="geometry" />
        </mxCell>
        <mxCell id="tzb5yaRrSsXEz6ic2CVl-319" value="&lt;font style=&quot;font-size: 16px&quot;&gt;Super cool team&lt;/font&gt;" style="text;html=1;strokeColor=none;fillColor=none;align=center;verticalAlign=middle;whiteSpace=wrap;rounded=0;" parent="1" vertex="1">
          <mxGeometry x="1874.5" y="4210" width="145" height="20" as="geometry" />
        </mxCell>
        <mxCell id="tzb5yaRrSsXEz6ic2CVl-320" value="" style="rounded=0;whiteSpace=wrap;html=1;" parent="1" vertex="1">
          <mxGeometry x="2720" y="1840" width="590" height="440" as="geometry" />
        </mxCell>
        <mxCell id="tzb5yaRrSsXEz6ic2CVl-321" value="scoreboard" style="text;html=1;strokeColor=none;fillColor=none;align=center;verticalAlign=middle;whiteSpace=wrap;rounded=0;" parent="1" vertex="1">
          <mxGeometry x="2720" y="1840" width="70" height="20" as="geometry" />
        </mxCell>
        <mxCell id="tzb5yaRrSsXEz6ic2CVl-322" value="&lt;font style=&quot;font-size: 24px&quot;&gt;Einde quiznight&lt;/font&gt;" style="text;html=1;strokeColor=none;fillColor=none;align=center;verticalAlign=middle;whiteSpace=wrap;rounded=0;" parent="1" vertex="1">
          <mxGeometry x="2922.5" y="1870" width="185" height="40" as="geometry" />
        </mxCell>
        <mxCell id="tzb5yaRrSsXEz6ic2CVl-323" value="Vraag 12/12" style="text;html=1;strokeColor=none;fillColor=none;align=center;verticalAlign=middle;whiteSpace=wrap;rounded=0;" parent="1" vertex="1">
          <mxGeometry x="3215" y="1890" width="75" height="20" as="geometry" />
        </mxCell>
        <mxCell id="tzb5yaRrSsXEz6ic2CVl-324" value="Quizronde 4" style="text;html=1;strokeColor=none;fillColor=none;align=center;verticalAlign=middle;whiteSpace=wrap;rounded=0;" parent="1" vertex="1">
          <mxGeometry x="3215" y="1870" width="75" height="20" as="geometry" />
        </mxCell>
        <mxCell id="tzb5yaRrSsXEz6ic2CVl-325" value="564125" style="text;html=1;strokeColor=none;fillColor=none;align=center;verticalAlign=middle;whiteSpace=wrap;rounded=0;" parent="1" vertex="1">
          <mxGeometry x="3215" y="1850" width="75" height="20" as="geometry" />
        </mxCell>
        <mxCell id="tzb5yaRrSsXEz6ic2CVl-341" value="&lt;font style=&quot;font-size: 16px&quot;&gt;Eerste plaats!&lt;br&gt;11 goede antwoorden&lt;br&gt;15 rondepunten&lt;br&gt;&lt;/font&gt;" style="rounded=0;whiteSpace=wrap;html=1;fillColor=#dae8fc;strokeColor=#6c8ebf;" parent="1" vertex="1">
          <mxGeometry x="2870" y="1920" width="300" height="230" as="geometry" />
        </mxCell>
        <mxCell id="tzb5yaRrSsXEz6ic2CVl-342" value="&lt;font style=&quot;font-size: 16px&quot;&gt;Super cool team&lt;/font&gt;" style="text;html=1;strokeColor=none;fillColor=none;align=center;verticalAlign=middle;whiteSpace=wrap;rounded=0;" parent="1" vertex="1">
          <mxGeometry x="2942.5" y="1920" width="145" height="20" as="geometry" />
        </mxCell>
        <mxCell id="tzb5yaRrSsXEz6ic2CVl-343" value="Home" style="rounded=1;whiteSpace=wrap;html=1;" parent="1" vertex="1">
          <mxGeometry x="3200" y="2240" width="90" height="30" as="geometry" />
        </mxCell>
        <mxCell id="tzb5yaRrSsXEz6ic2CVl-344" value="" style="endArrow=none;dashed=1;html=1;exitX=0.25;exitY=0;exitDx=0;exitDy=0;entryX=0;entryY=1;entryDx=0;entryDy=0;strokeColor=none;rounded=0;" parent="1" source="tzb5yaRrSsXEz6ic2CVl-124" target="tzb5yaRrSsXEz6ic2CVl-127" edge="1">
          <mxGeometry width="50" height="50" relative="1" as="geometry">
            <mxPoint x="740" y="2280" as="sourcePoint" />
            <mxPoint x="790" y="2230" as="targetPoint" />
            <Array as="points">
              <mxPoint x="553" y="2180" />
            </Array>
          </mxGeometry>
        </mxCell>
        <mxCell id="tzb5yaRrSsXEz6ic2CVl-356" value="" style="rounded=0;whiteSpace=wrap;html=1;" parent="1" vertex="1">
          <mxGeometry x="1652" y="3160" width="590" height="440" as="geometry" />
        </mxCell>
        <mxCell id="tzb5yaRrSsXEz6ic2CVl-357" value="scoreboard" style="text;html=1;strokeColor=none;fillColor=none;align=center;verticalAlign=middle;whiteSpace=wrap;rounded=0;" parent="1" vertex="1">
          <mxGeometry x="1652" y="3160" width="70" height="20" as="geometry" />
        </mxCell>
        <mxCell id="tzb5yaRrSsXEz6ic2CVl-358" value="" style="rounded=0;whiteSpace=wrap;html=1;strokeColor=#0000FF;" parent="1" vertex="1">
          <mxGeometry x="1692" y="3380" width="530" height="180" as="geometry" />
        </mxCell>
        <mxCell id="tzb5yaRrSsXEz6ic2CVl-359" value="Team1" style="text;html=1;strokeColor=none;fillColor=none;align=center;verticalAlign=middle;whiteSpace=wrap;rounded=0;" parent="1" vertex="1">
          <mxGeometry x="1692" y="3380" width="100" height="20" as="geometry" />
        </mxCell>
        <mxCell id="tzb5yaRrSsXEz6ic2CVl-360" value="Team3" style="text;html=1;strokeColor=none;fillColor=none;align=center;verticalAlign=middle;whiteSpace=wrap;rounded=0;" parent="1" vertex="1">
          <mxGeometry x="1692" y="3400" width="100" height="20" as="geometry" />
        </mxCell>
        <mxCell id="tzb5yaRrSsXEz6ic2CVl-361" value="&lt;font style=&quot;font-size: 24px&quot;&gt;Vraag 1/12&lt;/font&gt;" style="text;html=1;strokeColor=none;fillColor=none;align=center;verticalAlign=middle;whiteSpace=wrap;rounded=0;" parent="1" vertex="1">
          <mxGeometry x="1880.75" y="3170" width="132.5" height="20" as="geometry" />
        </mxCell>
        <mxCell id="tzb5yaRrSsXEz6ic2CVl-362" value="&lt;font style=&quot;font-size: 18px&quot;&gt;Quizronde 1&lt;/font&gt;" style="text;html=1;strokeColor=none;fillColor=none;align=center;verticalAlign=middle;whiteSpace=wrap;rounded=0;" parent="1" vertex="1">
          <mxGeometry x="1885.75" y="3200" width="142.5" height="20" as="geometry" />
        </mxCell>
        <mxCell id="tzb5yaRrSsXEz6ic2CVl-363" value="564125" style="text;html=1;strokeColor=none;fillColor=none;align=center;verticalAlign=middle;whiteSpace=wrap;rounded=0;" parent="1" vertex="1">
          <mxGeometry x="2147" y="3170" width="75" height="20" as="geometry" />
        </mxCell>
        <mxCell id="tzb5yaRrSsXEz6ic2CVl-364" value="&lt;font style=&quot;font-size: 36px&quot;&gt;Wat is de hoofdstad van Frankrijk?&lt;/font&gt;" style="text;html=1;strokeColor=none;fillColor=none;align=center;verticalAlign=middle;whiteSpace=wrap;rounded=0;" parent="1" vertex="1">
          <mxGeometry x="1652" y="3260" width="590" height="60" as="geometry" />
        </mxCell>
        <mxCell id="tzb5yaRrSsXEz6ic2CVl-365" value="&lt;font style=&quot;font-size: 18px&quot;&gt;Topografie&lt;/font&gt;" style="text;html=1;strokeColor=none;fillColor=none;align=center;verticalAlign=middle;whiteSpace=wrap;rounded=0;" parent="1" vertex="1">
          <mxGeometry x="1672" y="3240" width="70" height="20" as="geometry" />
        </mxCell>
        <mxCell id="tzb5yaRrSsXEz6ic2CVl-366" value="Team2" style="text;html=1;strokeColor=#b85450;fillColor=#f8cecc;align=center;verticalAlign=middle;whiteSpace=wrap;rounded=0;" parent="1" vertex="1">
          <mxGeometry x="1692" y="3420" width="100" height="20" as="geometry" />
        </mxCell>
        <mxCell id="tzb5yaRrSsXEz6ic2CVl-367" value="Antwoorden" style="text;html=1;strokeColor=none;fillColor=none;align=center;verticalAlign=middle;whiteSpace=wrap;rounded=0;" parent="1" vertex="1">
          <mxGeometry x="1692" y="3350" width="70" height="20" as="geometry" />
        </mxCell>
        <mxCell id="tzb5yaRrSsXEz6ic2CVl-368" value="Parijs" style="text;html=1;strokeColor=#82b366;fillColor=#d5e8d4;align=center;verticalAlign=middle;whiteSpace=wrap;rounded=0;" parent="1" vertex="1">
          <mxGeometry x="1787" y="3380" width="435" height="20" as="geometry" />
        </mxCell>
        <mxCell id="tzb5yaRrSsXEz6ic2CVl-369" value="Parijs" style="text;html=1;strokeColor=#82b366;fillColor=#d5e8d4;align=center;verticalAlign=middle;whiteSpace=wrap;rounded=0;" parent="1" vertex="1">
          <mxGeometry x="1787" y="3400" width="435" height="20" as="geometry" />
        </mxCell>
        <mxCell id="tzb5yaRrSsXEz6ic2CVl-370" value="Trois-Ponts" style="text;html=1;strokeColor=#b85450;fillColor=#f8cecc;align=center;verticalAlign=middle;whiteSpace=wrap;rounded=0;" parent="1" vertex="1">
          <mxGeometry x="1792" y="3420" width="430" height="20" as="geometry" />
        </mxCell>
        <mxCell id="tzb5yaRrSsXEz6ic2CVl-371" value="Team1" style="text;html=1;strokeColor=#82b366;fillColor=#d5e8d4;align=center;verticalAlign=middle;whiteSpace=wrap;rounded=0;" parent="1" vertex="1">
          <mxGeometry x="1692" y="3380" width="100" height="20" as="geometry" />
        </mxCell>
        <mxCell id="tzb5yaRrSsXEz6ic2CVl-372" value="Team3" style="text;html=1;strokeColor=#82b366;fillColor=#d5e8d4;align=center;verticalAlign=middle;whiteSpace=wrap;rounded=0;" parent="1" vertex="1">
          <mxGeometry x="1692" y="3400" width="100" height="20" as="geometry" />
        </mxCell>
        <mxCell id="tzb5yaRrSsXEz6ic2CVl-373" value="" style="rounded=0;whiteSpace=wrap;html=1;" parent="1" vertex="1">
          <mxGeometry x="1652" y="2190" width="590" height="440" as="geometry" />
        </mxCell>
        <mxCell id="tzb5yaRrSsXEz6ic2CVl-374" value="scoreboard" style="text;html=1;strokeColor=none;fillColor=none;align=center;verticalAlign=middle;whiteSpace=wrap;rounded=0;" parent="1" vertex="1">
          <mxGeometry x="1652" y="2190" width="70" height="20" as="geometry" />
        </mxCell>
        <mxCell id="tzb5yaRrSsXEz6ic2CVl-375" value="&lt;font style=&quot;font-size: 32px&quot;&gt;Quizzer&lt;/font&gt;" style="text;html=1;strokeColor=none;fillColor=none;align=center;verticalAlign=middle;whiteSpace=wrap;rounded=0;" parent="1" vertex="1">
          <mxGeometry x="1854.5" y="2260" width="185" height="40" as="geometry" />
        </mxCell>
        <mxCell id="tzb5yaRrSsXEz6ic2CVl-377" value="Quiznightpin" style="rounded=0;whiteSpace=wrap;html=1;" parent="1" vertex="1">
          <mxGeometry x="1887" y="2350" width="120" height="30" as="geometry" />
        </mxCell>
        <mxCell id="bd66M0HTxPimwIOGu9iC-104" style="edgeStyle=orthogonalEdgeStyle;rounded=0;orthogonalLoop=1;jettySize=auto;html=1;dashed=1;startArrow=none;startFill=0;endArrow=classic;endFill=1;" edge="1" parent="1" source="tzb5yaRrSsXEz6ic2CVl-378" target="bd66M0HTxPimwIOGu9iC-103">
          <mxGeometry relative="1" as="geometry" />
        </mxCell>
        <mxCell id="bd66M0HTxPimwIOGu9iC-106" style="edgeStyle=orthogonalEdgeStyle;rounded=0;orthogonalLoop=1;jettySize=auto;html=1;entryX=0;entryY=0.5;entryDx=0;entryDy=0;dashed=1;startArrow=none;startFill=0;endArrow=classic;endFill=1;" edge="1" parent="1" source="tzb5yaRrSsXEz6ic2CVl-378" target="bd66M0HTxPimwIOGu9iC-105">
          <mxGeometry relative="1" as="geometry" />
        </mxCell>
        <mxCell id="bd66M0HTxPimwIOGu9iC-108" style="edgeStyle=orthogonalEdgeStyle;rounded=0;orthogonalLoop=1;jettySize=auto;html=1;entryX=0;entryY=0.5;entryDx=0;entryDy=0;dashed=1;startArrow=none;startFill=0;endArrow=classic;endFill=1;" edge="1" parent="1" source="tzb5yaRrSsXEz6ic2CVl-378" target="bd66M0HTxPimwIOGu9iC-107">
          <mxGeometry relative="1" as="geometry">
            <Array as="points">
              <mxPoint x="2140" y="2410" />
              <mxPoint x="2140" y="2500" />
            </Array>
          </mxGeometry>
        </mxCell>
        <mxCell id="tzb5yaRrSsXEz6ic2CVl-378" value="Starten" style="rounded=1;whiteSpace=wrap;html=1;fillColor=#d5e8d4;strokeColor=#82b366;" parent="1" vertex="1">
          <mxGeometry x="1902" y="2395" width="90" height="30" as="geometry" />
        </mxCell>
        <mxCell id="bd66M0HTxPimwIOGu9iC-3" value="&amp;lt;App&amp;gt;" style="text;html=1;strokeColor=none;fillColor=none;align=center;verticalAlign=middle;whiteSpace=wrap;rounded=0;dashed=1;" vertex="1" parent="1">
          <mxGeometry x="690" y="60" width="40" height="20" as="geometry" />
        </mxCell>
        <mxCell id="tzb5yaRrSsXEz6ic2CVl-63" value="Start quiznight" style="rounded=1;whiteSpace=wrap;html=1;" parent="1" vertex="1">
          <mxGeometry x="285" y="230" width="120" height="60" as="geometry" />
        </mxCell>
        <mxCell id="tzb5yaRrSsXEz6ic2CVl-77" value="&lt;font style=&quot;font-size: 32px&quot;&gt;Quizzer&lt;/font&gt;" style="text;html=1;strokeColor=none;fillColor=none;align=center;verticalAlign=middle;whiteSpace=wrap;rounded=0;" parent="1" vertex="1">
          <mxGeometry x="252.5" y="110" width="185" height="40" as="geometry" />
        </mxCell>
        <mxCell id="bd66M0HTxPimwIOGu9iC-7" value="" style="endArrow=none;dashed=1;html=1;exitX=1;exitY=0.5;exitDx=0;exitDy=0;entryX=0;entryY=0.5;entryDx=0;entryDy=0;" edge="1" parent="1" source="tzb5yaRrSsXEz6ic2CVl-63" target="bd66M0HTxPimwIOGu9iC-8">
          <mxGeometry width="50" height="50" relative="1" as="geometry">
            <mxPoint x="750" y="330" as="sourcePoint" />
            <mxPoint x="710" y="350" as="targetPoint" />
            <Array as="points">
              <mxPoint x="510" y="260" />
              <mxPoint x="510" y="345" />
            </Array>
          </mxGeometry>
        </mxCell>
        <mxCell id="bd66M0HTxPimwIOGu9iC-8" value="&amp;lt;Button&amp;gt;" style="text;html=1;strokeColor=none;fillColor=none;align=center;verticalAlign=middle;whiteSpace=wrap;rounded=0;dashed=1;" vertex="1" parent="1">
          <mxGeometry x="710" y="330" width="80" height="30" as="geometry" />
        </mxCell>
        <mxCell id="bd66M0HTxPimwIOGu9iC-9" value="[REST] POST /quiz-nights" style="text;html=1;strokeColor=none;fillColor=none;align=center;verticalAlign=middle;whiteSpace=wrap;rounded=0;dashed=1;" vertex="1" parent="1">
          <mxGeometry x="710" y="380" width="100" height="20" as="geometry" />
        </mxCell>
        <mxCell id="bd66M0HTxPimwIOGu9iC-10" value="" style="endArrow=classic;dashed=1;html=1;exitX=0.75;exitY=1;exitDx=0;exitDy=0;entryX=0;entryY=0.5;entryDx=0;entryDy=0;endFill=1;" edge="1" parent="1" source="tzb5yaRrSsXEz6ic2CVl-63" target="bd66M0HTxPimwIOGu9iC-9">
          <mxGeometry width="50" height="50" relative="1" as="geometry">
            <mxPoint x="750" y="470" as="sourcePoint" />
            <mxPoint x="800" y="420" as="targetPoint" />
            <Array as="points">
              <mxPoint x="375" y="390" />
            </Array>
          </mxGeometry>
        </mxCell>
        <mxCell id="bd66M0HTxPimwIOGu9iC-11" value="[WS] onTeamApply" style="text;html=1;strokeColor=none;fillColor=none;align=center;verticalAlign=middle;whiteSpace=wrap;rounded=0;dashed=1;" vertex="1" parent="1">
          <mxGeometry x="-140" y="715" width="130" height="20" as="geometry" />
        </mxCell>
        <mxCell id="bd66M0HTxPimwIOGu9iC-12" value="" style="endArrow=classic;html=1;dashed=1;exitX=1;exitY=0.5;exitDx=0;exitDy=0;entryX=0;entryY=0.5;entryDx=0;entryDy=0;" edge="1" parent="1" source="bd66M0HTxPimwIOGu9iC-11" target="tzb5yaRrSsXEz6ic2CVl-67">
          <mxGeometry width="50" height="50" relative="1" as="geometry">
            <mxPoint x="-40" y="720" as="sourcePoint" />
            <mxPoint x="10" y="670" as="targetPoint" />
            <Array as="points">
              <mxPoint x="20" y="725" />
            </Array>
          </mxGeometry>
        </mxCell>
        <mxCell id="bd66M0HTxPimwIOGu9iC-13" value="[REST] POST /quiz-nights/:quizPin/teams" style="text;html=1;strokeColor=none;fillColor=none;align=center;verticalAlign=middle;whiteSpace=wrap;rounded=0;dashed=1;" vertex="1" parent="1">
          <mxGeometry x="-190" y="870" width="180" height="35" as="geometry" />
        </mxCell>
        <mxCell id="bd66M0HTxPimwIOGu9iC-15" value="[REST] PATCH /quiz-nights/:quizPin" style="text;html=1;strokeColor=none;fillColor=none;align=center;verticalAlign=middle;whiteSpace=wrap;rounded=0;dashed=1;" vertex="1" parent="1">
          <mxGeometry x="750" y="885" width="110" height="25" as="geometry" />
        </mxCell>
        <mxCell id="bd66M0HTxPimwIOGu9iC-16" value="[REST] DELETE /quiz-nights/:quizPin/team-applications/:teamName" style="text;html=1;strokeColor=none;fillColor=none;align=center;verticalAlign=middle;whiteSpace=wrap;rounded=0;dashed=1;" vertex="1" parent="1">
          <mxGeometry x="-180" y="920" width="180" height="35" as="geometry" />
        </mxCell>
        <mxCell id="bd66M0HTxPimwIOGu9iC-21" style="edgeStyle=orthogonalEdgeStyle;rounded=0;orthogonalLoop=1;jettySize=auto;html=1;entryX=0;entryY=0.5;entryDx=0;entryDy=0;dashed=1;endArrow=none;endFill=0;" edge="1" parent="1" source="bd66M0HTxPimwIOGu9iC-20" target="tzb5yaRrSsXEz6ic2CVl-69">
          <mxGeometry relative="1" as="geometry" />
        </mxCell>
        <mxCell id="bd66M0HTxPimwIOGu9iC-20" value="&amp;lt;PanelRow&lt;br&gt;text: string&lt;br&gt;&amp;gt;" style="text;html=1;strokeColor=none;align=center;verticalAlign=middle;whiteSpace=wrap;rounded=0;dashed=1;fillColor=#ffffff;" vertex="1" parent="1">
          <mxGeometry x="-140" y="560" width="110" height="30" as="geometry" />
        </mxCell>
        <mxCell id="bd66M0HTxPimwIOGu9iC-23" style="edgeStyle=orthogonalEdgeStyle;rounded=0;orthogonalLoop=1;jettySize=auto;html=1;entryX=0;entryY=0.25;entryDx=0;entryDy=0;dashed=1;endArrow=none;endFill=0;" edge="1" parent="1" source="bd66M0HTxPimwIOGu9iC-22" target="tzb5yaRrSsXEz6ic2CVl-67">
          <mxGeometry relative="1" as="geometry" />
        </mxCell>
        <mxCell id="bd66M0HTxPimwIOGu9iC-22" value="&amp;lt;Panel&lt;br&gt;items: string[],&lt;br&gt;title: string&lt;br&gt;&amp;gt;" style="text;html=1;strokeColor=none;align=center;verticalAlign=middle;whiteSpace=wrap;rounded=0;dashed=1;fillColor=#ffffff;" vertex="1" parent="1">
          <mxGeometry x="-140" y="640" width="140" height="30" as="geometry" />
        </mxCell>
        <mxCell id="bd66M0HTxPimwIOGu9iC-25" style="edgeStyle=orthogonalEdgeStyle;rounded=0;orthogonalLoop=1;jettySize=auto;html=1;entryX=1;entryY=0.5;entryDx=0;entryDy=0;dashed=1;endArrow=none;endFill=0;exitX=0;exitY=0.5;exitDx=0;exitDy=0;" edge="1" parent="1" source="bd66M0HTxPimwIOGu9iC-24" target="tzb5yaRrSsXEz6ic2CVl-73">
          <mxGeometry relative="1" as="geometry">
            <Array as="points">
              <mxPoint x="650" y="725" />
              <mxPoint x="650" y="725" />
            </Array>
          </mxGeometry>
        </mxCell>
        <mxCell id="bd66M0HTxPimwIOGu9iC-24" value="&amp;lt;Panel&lt;br&gt;items: string[],&lt;br&gt;title: string&lt;br&gt;&amp;gt;" style="text;html=1;strokeColor=none;align=center;verticalAlign=middle;whiteSpace=wrap;rounded=0;dashed=1;fillColor=#ffffff;" vertex="1" parent="1">
          <mxGeometry x="670" y="710" width="140" height="30" as="geometry" />
        </mxCell>
        <mxCell id="bd66M0HTxPimwIOGu9iC-28" value="&amp;lt;PanelRow&lt;br&gt;text: string&lt;br&gt;&amp;gt;" style="text;html=1;strokeColor=none;align=center;verticalAlign=middle;whiteSpace=wrap;rounded=0;dashed=1;fillColor=#ffffff;" vertex="1" parent="1">
          <mxGeometry x="670" y="620" width="140" height="30" as="geometry" />
        </mxCell>
        <mxCell id="bd66M0HTxPimwIOGu9iC-32" style="edgeStyle=orthogonalEdgeStyle;rounded=0;orthogonalLoop=1;jettySize=auto;html=1;entryX=0;entryY=0.5;entryDx=0;entryDy=0;dashed=1;endArrow=classic;endFill=1;" edge="1" parent="1" source="bd66M0HTxPimwIOGu9iC-31" target="tzb5yaRrSsXEz6ic2CVl-83">
          <mxGeometry relative="1" as="geometry" />
        </mxCell>
        <mxCell id="bd66M0HTxPimwIOGu9iC-31" value="[REST] GET&lt;br&gt;/categories" style="text;html=1;strokeColor=none;fillColor=none;align=center;verticalAlign=middle;whiteSpace=wrap;rounded=0;dashed=1;" vertex="1" parent="1">
          <mxGeometry x="-100" y="1130" width="90" height="20" as="geometry" />
        </mxCell>
        <mxCell id="bd66M0HTxPimwIOGu9iC-33" value="&amp;lt;QuizPin&lt;br&gt;pin: number&lt;br&gt;&amp;gt;" style="text;html=1;strokeColor=none;fillColor=none;align=center;verticalAlign=middle;whiteSpace=wrap;rounded=0;dashed=1;" vertex="1" parent="1">
          <mxGeometry x="690" y="510" width="90" height="40" as="geometry" />
        </mxCell>
        <mxCell id="bd66M0HTxPimwIOGu9iC-36" style="edgeStyle=orthogonalEdgeStyle;rounded=0;orthogonalLoop=1;jettySize=auto;html=1;entryX=0;entryY=0.25;entryDx=0;entryDy=0;dashed=1;endArrow=none;endFill=0;" edge="1" parent="1" source="bd66M0HTxPimwIOGu9iC-35" target="tzb5yaRrSsXEz6ic2CVl-83">
          <mxGeometry relative="1" as="geometry" />
        </mxCell>
        <mxCell id="bd66M0HTxPimwIOGu9iC-35" value="&amp;lt;Panel&lt;br&gt;items: string[],&lt;br&gt;title: string&lt;br&gt;&amp;gt;" style="text;html=1;strokeColor=none;fillColor=none;align=center;verticalAlign=middle;whiteSpace=wrap;rounded=0;dashed=1;" vertex="1" parent="1">
          <mxGeometry x="-107.5" y="1070" width="105" height="50" as="geometry" />
        </mxCell>
        <mxCell id="bd66M0HTxPimwIOGu9iC-37" value="[REST] POST /quiz-nights/:quizPin/rounds" style="text;html=1;strokeColor=none;fillColor=none;align=center;verticalAlign=middle;whiteSpace=wrap;rounded=0;dashed=1;" vertex="1" parent="1">
          <mxGeometry x="660" y="1337.5" width="150" height="35" as="geometry" />
        </mxCell>
        <mxCell id="bd66M0HTxPimwIOGu9iC-41" value="[CODE] addCategory" style="text;html=1;strokeColor=none;fillColor=none;align=center;verticalAlign=middle;whiteSpace=wrap;rounded=0;dashed=1;" vertex="1" parent="1">
          <mxGeometry x="-70" y="1335" width="70" height="40" as="geometry" />
        </mxCell>
        <mxCell id="bd66M0HTxPimwIOGu9iC-43" value="[CODE]&lt;br&gt;removeCategory" style="text;html=1;strokeColor=none;fillColor=none;align=center;verticalAlign=middle;whiteSpace=wrap;rounded=0;dashed=1;" vertex="1" parent="1">
          <mxGeometry x="690" y="1035" width="130" height="30" as="geometry" />
        </mxCell>
        <mxCell id="bd66M0HTxPimwIOGu9iC-47" value="&amp;lt;Panel&lt;br&gt;items: string[],&lt;br&gt;title: string,&lt;br&gt;childRenderer: function&lt;br&gt;&amp;gt;" style="text;html=1;strokeColor=none;fillColor=none;align=center;verticalAlign=middle;whiteSpace=wrap;rounded=0;dashed=1;" vertex="1" parent="1">
          <mxGeometry x="720" y="1160" width="80" height="50" as="geometry" />
        </mxCell>
        <mxCell id="bd66M0HTxPimwIOGu9iC-49" value="[CODE] selectQuestion" style="text;html=1;strokeColor=none;fillColor=none;align=center;verticalAlign=middle;whiteSpace=wrap;rounded=0;dashed=1;" vertex="1" parent="1">
          <mxGeometry x="-100" y="1530" width="85" height="40" as="geometry" />
        </mxCell>
        <mxCell id="bd66M0HTxPimwIOGu9iC-54" style="edgeStyle=orthogonalEdgeStyle;rounded=0;orthogonalLoop=1;jettySize=auto;html=1;entryX=1;entryY=0.5;entryDx=0;entryDy=0;dashed=1;endArrow=classic;endFill=1;" edge="1" parent="1" source="bd66M0HTxPimwIOGu9iC-52" target="bd66M0HTxPimwIOGu9iC-53">
          <mxGeometry relative="1" as="geometry" />
        </mxCell>
        <mxCell id="bd66M0HTxPimwIOGu9iC-52" value="Laad meer vragen" style="rounded=1;whiteSpace=wrap;html=1;" vertex="1" parent="1">
          <mxGeometry x="410" y="1810" width="115" height="30" as="geometry" />
        </mxCell>
        <mxCell id="bd66M0HTxPimwIOGu9iC-53" value="[REST] GET /questions?offset=0&amp;amp;limit=20" style="text;html=1;strokeColor=none;fillColor=none;align=center;verticalAlign=middle;whiteSpace=wrap;rounded=0;dashed=1;" vertex="1" parent="1">
          <mxGeometry x="-95" y="1797.5" width="120" height="55" as="geometry" />
        </mxCell>
        <mxCell id="tzb5yaRrSsXEz6ic2CVl-99" value="Vraag 1/12" style="text;html=1;strokeColor=none;fillColor=none;align=center;verticalAlign=middle;whiteSpace=wrap;rounded=0;" parent="1" vertex="1">
          <mxGeometry x="542.5" y="1460" width="75" height="20" as="geometry" />
        </mxCell>
        <mxCell id="tzb5yaRrSsXEz6ic2CVl-100" value="Quizronde 1" style="text;html=1;strokeColor=none;fillColor=none;align=center;verticalAlign=middle;whiteSpace=wrap;rounded=0;" parent="1" vertex="1">
          <mxGeometry x="542.5" y="1440" width="75" height="20" as="geometry" />
        </mxCell>
        <mxCell id="tzb5yaRrSsXEz6ic2CVl-101" value="564125" style="text;html=1;strokeColor=none;fillColor=none;align=center;verticalAlign=middle;whiteSpace=wrap;rounded=0;" parent="1" vertex="1">
          <mxGeometry x="542.5" y="1420" width="75" height="20" as="geometry" />
        </mxCell>
        <mxCell id="bd66M0HTxPimwIOGu9iC-56" value="[REST] POST &lt;br&gt;/quiz-nights/:quizPin/rounds/:round/questionings" style="text;html=1;strokeColor=none;fillColor=none;align=center;verticalAlign=middle;whiteSpace=wrap;rounded=0;dashed=1;" vertex="1" parent="1">
          <mxGeometry x="710" y="1810" width="270" height="30" as="geometry" />
        </mxCell>
        <mxCell id="bd66M0HTxPimwIOGu9iC-57" value="&amp;lt;GameProgress&lt;br&gt;gamePin: number,&lt;br&gt;round: number,&lt;br&gt;question: number&lt;br&gt;&amp;gt;" style="text;html=1;strokeColor=none;fillColor=none;align=center;verticalAlign=middle;whiteSpace=wrap;rounded=0;dashed=1;" vertex="1" parent="1">
          <mxGeometry x="685" y="1470" width="150" height="70" as="geometry" />
        </mxCell>
        <mxCell id="bd66M0HTxPimwIOGu9iC-60" value="[REST] POST&amp;nbsp;&lt;br&gt;/quiz-nights/:quizPin/rounds/:round/questionings/:question/grade" style="text;html=1;strokeColor=none;fillColor=none;align=center;verticalAlign=middle;whiteSpace=wrap;rounded=0;dashed=1;" vertex="1" parent="1">
          <mxGeometry x="670" y="2355" width="360" height="30" as="geometry" />
        </mxCell>
        <mxCell id="bd66M0HTxPimwIOGu9iC-63" value="&amp;lt;Question&lt;br&gt;question: string,&lt;br&gt;correctAnswer: string,&lt;br&gt;category: string&amp;gt;" style="text;html=1;strokeColor=none;fillColor=none;align=center;verticalAlign=middle;whiteSpace=wrap;rounded=0;dashed=1;" vertex="1" parent="1">
          <mxGeometry x="685" y="1930" width="160" height="60" as="geometry" />
        </mxCell>
        <mxCell id="tzb5yaRrSsXEz6ic2CVl-118" value="" style="ellipse;whiteSpace=wrap;html=1;aspect=fixed;fillColor=#d5e8d4;strokeColor=#82b366;" parent="1" vertex="1">
          <mxGeometry x="315" y="2050" width="20" height="20" as="geometry" />
        </mxCell>
        <mxCell id="bd66M0HTxPimwIOGu9iC-68" style="edgeStyle=orthogonalEdgeStyle;rounded=0;orthogonalLoop=1;jettySize=auto;html=1;entryX=1;entryY=0.5;entryDx=0;entryDy=0;dashed=1;endArrow=none;endFill=0;" edge="1" parent="1" source="bd66M0HTxPimwIOGu9iC-67" target="tzb5yaRrSsXEz6ic2CVl-98">
          <mxGeometry relative="1" as="geometry" />
        </mxCell>
        <mxCell id="bd66M0HTxPimwIOGu9iC-67" value="&amp;lt;AvailableQuestions&lt;br&gt;questions: [{&lt;br&gt;category: string,&lt;br&gt;question: string&lt;br&gt;}]&amp;gt;" style="text;html=1;strokeColor=none;fillColor=none;align=center;verticalAlign=middle;whiteSpace=wrap;rounded=0;dashed=1;" vertex="1" parent="1">
          <mxGeometry x="685" y="1682" width="170" height="72" as="geometry" />
        </mxCell>
        <mxCell id="bd66M0HTxPimwIOGu9iC-70" style="edgeStyle=orthogonalEdgeStyle;rounded=0;orthogonalLoop=1;jettySize=auto;html=1;entryX=0.5;entryY=1;entryDx=0;entryDy=0;dashed=1;endArrow=none;endFill=0;" edge="1" parent="1" source="bd66M0HTxPimwIOGu9iC-69" target="tzb5yaRrSsXEz6ic2CVl-109">
          <mxGeometry relative="1" as="geometry" />
        </mxCell>
        <mxCell id="bd66M0HTxPimwIOGu9iC-69" value="&amp;lt;AvailableQuestion&lt;br&gt;category: string,&lt;br&gt;question: string&lt;br&gt;&amp;gt;" style="text;html=1;strokeColor=none;fillColor=none;align=center;verticalAlign=middle;whiteSpace=wrap;rounded=0;dashed=1;" vertex="1" parent="1">
          <mxGeometry x="685" y="1564" width="170" height="72" as="geometry" />
        </mxCell>
        <mxCell id="bd66M0HTxPimwIOGu9iC-71" value="[REST] PATCH&amp;nbsp;&lt;br&gt;/quiz-nights/:quizPin/rounds/:round/questionings/:question" style="text;html=1;strokeColor=none;fillColor=none;align=center;verticalAlign=middle;whiteSpace=wrap;rounded=0;dashed=1;" vertex="1" parent="1">
          <mxGeometry x="-413" y="2260" width="430" height="30" as="geometry" />
        </mxCell>
        <mxCell id="bd66M0HTxPimwIOGu9iC-73" value="[ROUTE] master/question" style="text;html=1;strokeColor=none;fillColor=none;align=center;verticalAlign=middle;whiteSpace=wrap;rounded=0;dashed=1;" vertex="1" parent="1">
          <mxGeometry x="800" y="2220" width="100" height="30" as="geometry" />
        </mxCell>
        <mxCell id="bd66M0HTxPimwIOGu9iC-77" style="edgeStyle=orthogonalEdgeStyle;rounded=0;orthogonalLoop=1;jettySize=auto;html=1;dashed=1;endArrow=classic;endFill=1;" edge="1" parent="1" source="bd66M0HTxPimwIOGu9iC-76" target="tzb5yaRrSsXEz6ic2CVl-114">
          <mxGeometry relative="1" as="geometry" />
        </mxCell>
        <mxCell id="bd66M0HTxPimwIOGu9iC-76" value="[WS] onAnswer" style="text;html=1;strokeColor=none;fillColor=none;align=center;verticalAlign=middle;whiteSpace=wrap;rounded=0;dashed=1;" vertex="1" parent="1">
          <mxGeometry x="-70" y="2180" width="40" height="20" as="geometry" />
        </mxCell>
        <mxCell id="bd66M0HTxPimwIOGu9iC-80" style="edgeStyle=orthogonalEdgeStyle;rounded=0;orthogonalLoop=1;jettySize=auto;html=1;entryX=0.5;entryY=0;entryDx=0;entryDy=0;dashed=1;endArrow=none;endFill=0;" edge="1" parent="1" source="bd66M0HTxPimwIOGu9iC-79" target="tzb5yaRrSsXEz6ic2CVl-117">
          <mxGeometry relative="1" as="geometry" />
        </mxCell>
        <mxCell id="bd66M0HTxPimwIOGu9iC-79" value="&amp;lt;SlideToggle&lt;br&gt;value: boolean&lt;br&gt;onChange: function&lt;br&gt;&amp;gt;" style="text;html=1;strokeColor=none;fillColor=none;align=center;verticalAlign=middle;whiteSpace=wrap;rounded=0;dashed=1;" vertex="1" parent="1">
          <mxGeometry x="-100" y="1990" width="100" height="50" as="geometry" />
        </mxCell>
        <mxCell id="bd66M0HTxPimwIOGu9iC-82" style="edgeStyle=orthogonalEdgeStyle;rounded=0;orthogonalLoop=1;jettySize=auto;html=1;entryX=0;entryY=0.5;entryDx=0;entryDy=0;dashed=1;endArrow=none;endFill=0;" edge="1" parent="1" source="bd66M0HTxPimwIOGu9iC-81" target="tzb5yaRrSsXEz6ic2CVl-119">
          <mxGeometry relative="1" as="geometry" />
        </mxCell>
        <mxCell id="bd66M0HTxPimwIOGu9iC-81" value="&amp;lt;Answer&lt;br&gt;team: string,&lt;br&gt;answer: string, &lt;br&gt;isCorrect: boolean,&lt;br&gt;&amp;nbsp;onChange: function&amp;gt;" style="text;html=1;strokeColor=none;fillColor=none;align=center;verticalAlign=middle;whiteSpace=wrap;rounded=0;dashed=1;" vertex="1" parent="1">
          <mxGeometry x="-120" y="2065" width="140" height="70" as="geometry" />
        </mxCell>
        <mxCell id="bd66M0HTxPimwIOGu9iC-84" style="edgeStyle=orthogonalEdgeStyle;rounded=0;orthogonalLoop=1;jettySize=auto;html=1;entryX=1;entryY=0.5;entryDx=0;entryDy=0;dashed=1;endArrow=none;endFill=0;" edge="1" parent="1" source="bd66M0HTxPimwIOGu9iC-83" target="tzb5yaRrSsXEz6ic2CVl-114">
          <mxGeometry relative="1" as="geometry" />
        </mxCell>
        <mxCell id="bd66M0HTxPimwIOGu9iC-83" value="&amp;lt;Answers&lt;br&gt;answers: [&lt;br&gt;{&lt;br&gt;team: string,&lt;br&gt;answer: string,&lt;br&gt;isCorrect: boolean&lt;br&gt;}&lt;br&gt;]&amp;gt;" style="text;html=1;strokeColor=none;fillColor=none;align=center;verticalAlign=middle;whiteSpace=wrap;rounded=0;dashed=1;" vertex="1" parent="1">
          <mxGeometry x="705" y="2025" width="110" height="110" as="geometry" />
        </mxCell>
        <mxCell id="bd66M0HTxPimwIOGu9iC-86" style="edgeStyle=orthogonalEdgeStyle;rounded=0;orthogonalLoop=1;jettySize=auto;html=1;entryX=0;entryY=0.5;entryDx=0;entryDy=0;dashed=1;endArrow=none;endFill=0;startArrow=classic;startFill=1;" edge="1" parent="1" source="bd66M0HTxPimwIOGu9iC-85" target="tzb5yaRrSsXEz6ic2CVl-137">
          <mxGeometry relative="1" as="geometry" />
        </mxCell>
        <mxCell id="bd66M0HTxPimwIOGu9iC-85" value="[REST] DELETE &lt;br&gt;/quiz-nights/:quizPin" style="text;html=1;strokeColor=none;fillColor=none;align=center;verticalAlign=middle;whiteSpace=wrap;rounded=0;dashed=1;" vertex="1" parent="1">
          <mxGeometry x="-116.5" y="2485" width="123" height="30" as="geometry" />
        </mxCell>
        <mxCell id="bd66M0HTxPimwIOGu9iC-87" value="[ROUTE] /master/categories" style="text;html=1;strokeColor=none;fillColor=none;align=center;verticalAlign=middle;whiteSpace=wrap;rounded=0;dashed=1;" vertex="1" parent="1">
          <mxGeometry x="670" y="2485" width="123" height="30" as="geometry" />
        </mxCell>
        <mxCell id="bd66M0HTxPimwIOGu9iC-89" value="Quizronde 1" style="text;html=1;strokeColor=none;fillColor=none;align=center;verticalAlign=middle;whiteSpace=wrap;rounded=0;" vertex="1" parent="1">
          <mxGeometry x="525" y="1000" width="75" height="20" as="geometry" />
        </mxCell>
        <mxCell id="bd66M0HTxPimwIOGu9iC-90" value="[ROUTE] master/end" style="text;html=1;strokeColor=none;fillColor=none;align=center;verticalAlign=middle;whiteSpace=wrap;rounded=0;dashed=1;" vertex="1" parent="1">
          <mxGeometry x="-70" y="2540" width="70" height="30" as="geometry" />
        </mxCell>
        <mxCell id="bd66M0HTxPimwIOGu9iC-93" style="edgeStyle=orthogonalEdgeStyle;rounded=0;orthogonalLoop=1;jettySize=auto;html=1;dashed=1;startArrow=none;startFill=0;endArrow=classic;endFill=1;entryX=0;entryY=0.5;entryDx=0;entryDy=0;" edge="1" parent="1" source="bd66M0HTxPimwIOGu9iC-92" target="bd66M0HTxPimwIOGu9iC-94">
          <mxGeometry relative="1" as="geometry">
            <mxPoint x="-40" y="3030" as="targetPoint" />
          </mxGeometry>
        </mxCell>
        <mxCell id="bd66M0HTxPimwIOGu9iC-92" value="[WS] onQuizNightEnd" style="text;html=1;strokeColor=none;fillColor=none;align=center;verticalAlign=middle;whiteSpace=wrap;rounded=0;dashed=1;" vertex="1" parent="1">
          <mxGeometry x="-100" y="2960" width="107" height="40" as="geometry" />
        </mxCell>
        <mxCell id="bd66M0HTxPimwIOGu9iC-96" style="edgeStyle=orthogonalEdgeStyle;rounded=0;orthogonalLoop=1;jettySize=auto;html=1;entryX=0;entryY=0.5;entryDx=0;entryDy=0;dashed=1;startArrow=none;startFill=0;endArrow=none;endFill=0;" edge="1" parent="1" source="bd66M0HTxPimwIOGu9iC-95" target="tzb5yaRrSsXEz6ic2CVl-295">
          <mxGeometry relative="1" as="geometry" />
        </mxCell>
        <mxCell id="bd66M0HTxPimwIOGu9iC-95" value="&amp;lt;Winner&lt;br&gt;teamName: string,&lt;br&gt;numberOfCorrectAnswers: number,&lt;br&gt;roundPoints: number&lt;br&gt;&amp;gt;" style="text;html=1;strokeColor=none;fillColor=none;align=center;verticalAlign=middle;whiteSpace=wrap;rounded=0;dashed=1;" vertex="1" parent="1">
          <mxGeometry x="-176.5" y="2850" width="203" height="60" as="geometry" />
        </mxCell>
        <mxCell id="bd66M0HTxPimwIOGu9iC-98" style="edgeStyle=orthogonalEdgeStyle;rounded=0;orthogonalLoop=1;jettySize=auto;html=1;entryX=1;entryY=0.5;entryDx=0;entryDy=0;dashed=1;startArrow=none;startFill=0;endArrow=none;endFill=0;" edge="1" parent="1" source="bd66M0HTxPimwIOGu9iC-97" target="tzb5yaRrSsXEz6ic2CVl-240">
          <mxGeometry relative="1" as="geometry" />
        </mxCell>
        <mxCell id="bd66M0HTxPimwIOGu9iC-97" value="&amp;lt;Scores&lt;br&gt;scores: [&lt;br&gt;&amp;nbsp;{&lt;br&gt;teamName: string,&lt;br&gt;numberOfCorrectAnswers: number,&lt;br&gt;roundPoints: number&lt;br&gt;}&lt;br&gt;]&lt;br&gt;&amp;gt;" style="text;html=1;strokeColor=none;fillColor=none;align=center;verticalAlign=middle;whiteSpace=wrap;rounded=0;dashed=1;" vertex="1" parent="1">
          <mxGeometry x="660" y="2980" width="245" height="100" as="geometry" />
        </mxCell>
        <mxCell id="bd66M0HTxPimwIOGu9iC-100" style="edgeStyle=orthogonalEdgeStyle;rounded=0;orthogonalLoop=1;jettySize=auto;html=1;entryX=0;entryY=0.5;entryDx=0;entryDy=0;dashed=1;startArrow=none;startFill=0;endArrow=none;endFill=0;" edge="1" parent="1" source="bd66M0HTxPimwIOGu9iC-99" target="tzb5yaRrSsXEz6ic2CVl-245">
          <mxGeometry relative="1" as="geometry" />
        </mxCell>
        <mxCell id="bd66M0HTxPimwIOGu9iC-99" value="&amp;lt;TeamScore&lt;br&gt;teamName: string,&lt;br&gt;numberOfCorrectAnswers: number,&lt;br&gt;roundPoints: number&lt;br&gt;&amp;gt;" style="text;html=1;strokeColor=none;fillColor=none;align=center;verticalAlign=middle;whiteSpace=wrap;rounded=0;dashed=1;" vertex="1" parent="1">
          <mxGeometry x="-190" y="3040" width="175" height="80" as="geometry" />
        </mxCell>
        <mxCell id="bd66M0HTxPimwIOGu9iC-101" value="[ROUTE] master/" style="text;html=1;strokeColor=none;fillColor=none;align=center;verticalAlign=middle;whiteSpace=wrap;rounded=0;dashed=1;" vertex="1" parent="1">
          <mxGeometry x="715" y="3162.5" width="70" height="25" as="geometry" />
        </mxCell>
        <mxCell id="bd66M0HTxPimwIOGu9iC-103" value="[REST] POST /scoreboards/:quizPin" style="text;html=1;strokeColor=none;fillColor=none;align=center;verticalAlign=middle;whiteSpace=wrap;rounded=0;dashed=1;" vertex="1" parent="1">
          <mxGeometry x="2290" y="2395" width="120" height="30" as="geometry" />
        </mxCell>
        <mxCell id="bd66M0HTxPimwIOGu9iC-105" value="[ROUTE] scoreboard/question" style="text;html=1;strokeColor=none;fillColor=none;align=center;verticalAlign=middle;whiteSpace=wrap;rounded=0;dashed=1;" vertex="1" parent="1">
          <mxGeometry x="2290" y="2450" width="120" height="30" as="geometry" />
        </mxCell>
        <mxCell id="bd66M0HTxPimwIOGu9iC-107" value="[WS] &amp;lt;&amp;lt;start connection&amp;gt;&amp;gt;" style="text;html=1;strokeColor=none;fillColor=none;align=center;verticalAlign=middle;whiteSpace=wrap;rounded=0;dashed=1;" vertex="1" parent="1">
          <mxGeometry x="2265" y="2490" width="170" height="20" as="geometry" />
        </mxCell>
        <mxCell id="bd66M0HTxPimwIOGu9iC-110" style="edgeStyle=orthogonalEdgeStyle;rounded=0;orthogonalLoop=1;jettySize=auto;html=1;entryX=0;entryY=0.5;entryDx=0;entryDy=0;dashed=1;startArrow=none;startFill=0;endArrow=classic;endFill=1;" edge="1" parent="1" source="bd66M0HTxPimwIOGu9iC-109" target="tzb5yaRrSsXEz6ic2CVl-166">
          <mxGeometry relative="1" as="geometry" />
        </mxCell>
        <mxCell id="bd66M0HTxPimwIOGu9iC-109" value="[WS] onAnswer" style="text;html=1;strokeColor=none;fillColor=none;align=center;verticalAlign=middle;whiteSpace=wrap;rounded=0;dashed=1;" vertex="1" parent="1">
          <mxGeometry x="1540" y="2990" width="40" height="20" as="geometry" />
        </mxCell>
        <mxCell id="bd66M0HTxPimwIOGu9iC-114" style="edgeStyle=orthogonalEdgeStyle;rounded=0;orthogonalLoop=1;jettySize=auto;html=1;entryX=0;entryY=0.25;entryDx=0;entryDy=0;dashed=1;startArrow=none;startFill=0;endArrow=none;endFill=0;" edge="1" parent="1" source="bd66M0HTxPimwIOGu9iC-113" target="bd66M0HTxPimwIOGu9iC-112">
          <mxGeometry relative="1" as="geometry" />
        </mxCell>
        <mxCell id="bd66M0HTxPimwIOGu9iC-113" value="&amp;lt;Question&lt;br&gt;category: string,&lt;br&gt;question: string&amp;gt;" style="text;html=1;strokeColor=none;fillColor=none;align=center;verticalAlign=middle;whiteSpace=wrap;rounded=0;dashed=1;" vertex="1" parent="1">
          <mxGeometry x="1470" y="2790" width="130" height="40" as="geometry" />
        </mxCell>
        <mxCell id="bd66M0HTxPimwIOGu9iC-116" style="edgeStyle=orthogonalEdgeStyle;rounded=0;orthogonalLoop=1;jettySize=auto;html=1;entryX=0.25;entryY=0;entryDx=0;entryDy=0;dashed=1;startArrow=none;startFill=0;endArrow=classic;endFill=1;" edge="1" parent="1" source="bd66M0HTxPimwIOGu9iC-115" target="bd66M0HTxPimwIOGu9iC-112">
          <mxGeometry relative="1" as="geometry" />
        </mxCell>
        <mxCell id="bd66M0HTxPimwIOGu9iC-115" value="[WS] onQuestion" style="text;html=1;strokeColor=none;fillColor=none;align=center;verticalAlign=middle;whiteSpace=wrap;rounded=0;dashed=1;" vertex="1" parent="1">
          <mxGeometry x="1515" y="2730" width="75" height="30" as="geometry" />
        </mxCell>
        <mxCell id="bd66M0HTxPimwIOGu9iC-118" style="edgeStyle=orthogonalEdgeStyle;rounded=0;orthogonalLoop=1;jettySize=auto;html=1;entryX=0;entryY=0.25;entryDx=0;entryDy=0;dashed=1;startArrow=none;startFill=0;endArrow=classic;endFill=1;exitX=1;exitY=0.5;exitDx=0;exitDy=0;" edge="1" parent="1" source="bd66M0HTxPimwIOGu9iC-117" target="tzb5yaRrSsXEz6ic2CVl-166">
          <mxGeometry relative="1" as="geometry">
            <Array as="points">
              <mxPoint x="1630" y="2950" />
              <mxPoint x="1630" y="2955" />
            </Array>
          </mxGeometry>
        </mxCell>
        <mxCell id="bd66M0HTxPimwIOGu9iC-117" value="&amp;lt;Table&lt;br&gt;childRenderer: function,&lt;br&gt;data: object[]&lt;br&gt;&amp;gt;" style="text;html=1;strokeColor=none;fillColor=none;align=center;verticalAlign=middle;whiteSpace=wrap;rounded=0;dashed=1;" vertex="1" parent="1">
          <mxGeometry x="1540" y="2930" width="70" height="40" as="geometry" />
        </mxCell>
        <mxCell id="bd66M0HTxPimwIOGu9iC-120" style="edgeStyle=orthogonalEdgeStyle;rounded=0;orthogonalLoop=1;jettySize=auto;html=1;entryX=0;entryY=0.5;entryDx=0;entryDy=0;dashed=1;startArrow=none;startFill=0;endArrow=classic;endFill=1;" edge="1" parent="1" source="bd66M0HTxPimwIOGu9iC-119" target="tzb5yaRrSsXEz6ic2CVl-171">
          <mxGeometry relative="1" as="geometry">
            <Array as="points">
              <mxPoint x="1630" y="2900" />
              <mxPoint x="1630" y="2940" />
            </Array>
          </mxGeometry>
        </mxCell>
        <mxCell id="bd66M0HTxPimwIOGu9iC-119" value="&amp;lt;TableRow&lt;br&gt;text: string&lt;br&gt;&amp;gt;" style="text;html=1;strokeColor=none;fillColor=none;align=center;verticalAlign=middle;whiteSpace=wrap;rounded=0;dashed=1;" vertex="1" parent="1">
          <mxGeometry x="1530" y="2860" width="70" height="40" as="geometry" />
        </mxCell>
        <mxCell id="bd66M0HTxPimwIOGu9iC-124" style="edgeStyle=orthogonalEdgeStyle;rounded=0;orthogonalLoop=1;jettySize=auto;html=1;dashed=1;startArrow=none;startFill=0;endArrow=none;endFill=0;" edge="1" parent="1" source="bd66M0HTxPimwIOGu9iC-122" target="bd66M0HTxPimwIOGu9iC-121">
          <mxGeometry relative="1" as="geometry" />
        </mxCell>
        <mxCell id="bd66M0HTxPimwIOGu9iC-122" value="&amp;lt;ScoreboardHeader&lt;br&gt;questionNumber: number,&lt;br&gt;quizRound: number,&lt;br&gt;quizPin: number&lt;br&gt;&amp;gt;" style="text;html=1;strokeColor=none;fillColor=none;align=center;verticalAlign=middle;whiteSpace=wrap;rounded=0;dashed=1;" vertex="1" parent="1">
          <mxGeometry x="2300" y="2695" width="150" height="70" as="geometry" />
        </mxCell>
        <mxCell id="bd66M0HTxPimwIOGu9iC-126" style="edgeStyle=orthogonalEdgeStyle;rounded=0;orthogonalLoop=1;jettySize=auto;html=1;entryX=0;entryY=0.5;entryDx=0;entryDy=0;dashed=1;startArrow=none;startFill=0;endArrow=classic;endFill=1;" edge="1" parent="1" source="bd66M0HTxPimwIOGu9iC-125" target="tzb5yaRrSsXEz6ic2CVl-358">
          <mxGeometry relative="1" as="geometry" />
        </mxCell>
        <mxCell id="bd66M0HTxPimwIOGu9iC-125" value="[WS]&lt;br&gt;onQuestionClosed" style="text;html=1;strokeColor=none;fillColor=none;align=center;verticalAlign=middle;whiteSpace=wrap;rounded=0;dashed=1;" vertex="1" parent="1">
          <mxGeometry x="1545" y="3460" width="40" height="20" as="geometry" />
        </mxCell>
        <mxCell id="bd66M0HTxPimwIOGu9iC-129" style="edgeStyle=orthogonalEdgeStyle;rounded=0;orthogonalLoop=1;jettySize=auto;html=1;entryX=0;entryY=0.25;entryDx=0;entryDy=0;dashed=1;startArrow=none;startFill=0;endArrow=none;endFill=0;" edge="1" parent="1" source="bd66M0HTxPimwIOGu9iC-128" target="tzb5yaRrSsXEz6ic2CVl-366">
          <mxGeometry relative="1" as="geometry" />
        </mxCell>
        <mxCell id="bd66M0HTxPimwIOGu9iC-128" value="&amp;lt;Table&lt;br&gt;childRenderer: function, data: object[]&lt;br&gt;&amp;gt;" style="text;html=1;strokeColor=none;fillColor=none;align=center;verticalAlign=middle;whiteSpace=wrap;rounded=0;dashed=1;" vertex="1" parent="1">
          <mxGeometry x="1502.5" y="3375" width="115" height="70" as="geometry" />
        </mxCell>
        <mxCell id="bd66M0HTxPimwIOGu9iC-131" style="edgeStyle=orthogonalEdgeStyle;rounded=0;orthogonalLoop=1;jettySize=auto;html=1;entryX=0;entryY=0.5;entryDx=0;entryDy=0;dashed=1;startArrow=none;startFill=0;endArrow=classic;endFill=1;" edge="1" parent="1" source="bd66M0HTxPimwIOGu9iC-130" target="tzb5yaRrSsXEz6ic2CVl-188">
          <mxGeometry relative="1" as="geometry" />
        </mxCell>
        <mxCell id="bd66M0HTxPimwIOGu9iC-130" value="[WS] onQuizNightEnd" style="text;html=1;strokeColor=none;fillColor=none;align=center;verticalAlign=middle;whiteSpace=wrap;rounded=0;dashed=1;" vertex="1" parent="1">
          <mxGeometry x="1545" y="3880" width="40" height="20" as="geometry" />
        </mxCell>
        <mxCell id="bd66M0HTxPimwIOGu9iC-133" style="edgeStyle=orthogonalEdgeStyle;rounded=0;orthogonalLoop=1;jettySize=auto;html=1;entryX=0;entryY=0.25;entryDx=0;entryDy=0;dashed=1;startArrow=none;startFill=0;endArrow=none;endFill=0;" edge="1" parent="1" source="bd66M0HTxPimwIOGu9iC-132" target="tzb5yaRrSsXEz6ic2CVl-188">
          <mxGeometry relative="1" as="geometry" />
        </mxCell>
        <mxCell id="bd66M0HTxPimwIOGu9iC-132" value="&amp;lt;Table&lt;br&gt;childRenderer: function, data: object[]&lt;br&gt;&amp;gt;" style="text;html=1;strokeColor=none;fillColor=none;align=center;verticalAlign=middle;whiteSpace=wrap;rounded=0;dashed=1;" vertex="1" parent="1">
          <mxGeometry x="1507.5" y="3740" width="115" height="70" as="geometry" />
        </mxCell>
        <mxCell id="bd66M0HTxPimwIOGu9iC-135" style="edgeStyle=orthogonalEdgeStyle;rounded=0;orthogonalLoop=1;jettySize=auto;html=1;entryX=0;entryY=0.5;entryDx=0;entryDy=0;dashed=1;startArrow=none;startFill=0;endArrow=classic;endFill=1;" edge="1" parent="1" source="bd66M0HTxPimwIOGu9iC-134" target="tzb5yaRrSsXEz6ic2CVl-304">
          <mxGeometry relative="1" as="geometry" />
        </mxCell>
        <mxCell id="bd66M0HTxPimwIOGu9iC-134" value="[WS] &lt;br&gt;onRoundEnd" style="text;html=1;strokeColor=none;fillColor=none;align=center;verticalAlign=middle;whiteSpace=wrap;rounded=0;dashed=1;" vertex="1" parent="1">
          <mxGeometry x="1499" y="4380" width="107" height="40" as="geometry" />
        </mxCell>
      </root>
    </mxGraphModel>
  </diagram>
</mxfile>
